FrauncesItalic-LightOpMaxGoofMax.ufo
<glyph name="comma" format="2">
  <advance width="308"/>
  <unicode hex="002C"/>
  <outline>
    <contour>
      <point x="205" y="-21" type="curve" smooth="yes"/>
      <point x="208" y="-20"/>
      <point x="213" y="-25"/>
      <point x="213" y="-38" type="curve" smooth="yes"/>
      <point x="213" y="-80"/>
      <point x="175" y="-139"/>
      <point x="121" y="-174" type="curve" smooth="yes"/>
      <point x="116" y="-180"/>
      <point x="108" y="-181"/>
      <point x="108" y="-186" type="curve" smooth="yes"/>
      <point x="108" y="-189"/>
      <point x="112" y="-192"/>
      <point x="116" y="-192" type="curve" smooth="yes"/>
      <point x="117" y="-192"/>
      <point x="114" y="-192"/>
      <point x="118" y="-189" type="curve" smooth="yes"/>
      <point x="161" y="-169"/>
      <point x="231" y="-83"/>
      <point x="231" y="52" type="curve" smooth="yes"/>
      <point x="231" y="99"/>
      <point x="211" y="105"/>
      <point x="202" y="105" type="curve" smooth="yes"/>
      <point x="179" y="105"/>
      <point x="158" y="77"/>
      <point x="158" y="43" type="curve" smooth="yes"/>
      <point x="158" y="13"/>
      <point x="168" y="-6"/>
    </contour>
  </outline>
</glyph>
<glyph name="six" format="2">
  <advance width="513"/>
  <unicode hex="0036"/>
  <outline>
    <contour>
      <point x="494" y="642" type="curve" smooth="yes"/>
      <point x="286" y="642"/>
      <point x="138" y="393"/>
      <point x="138" y="159" type="curve" smooth="yes"/>
      <point x="138" y="33"/>
      <point x="203" y="-15"/>
      <point x="277" y="-15" type="curve" smooth="yes"/>
      <point x="419" y="-15"/>
      <point x="540" y="135"/>
      <point x="540" y="271" type="curve" smooth="yes"/>
      <point x="540" y="357"/>
      <point x="493" y="398"/>
      <point x="417" y="398" type="curve" smooth="yes"/>
      <point x="302" y="398"/>
      <point x="198" y="319"/>
      <point x="169" y="200" type="curve"/>
      <point x="192" y="187" type="line"/>
      <point x="219" y="294"/>
      <point x="312" y="368"/>
      <point x="405" y="368" type="curve" smooth="yes"/>
      <point x="447" y="368"/>
      <point x="476" y="323"/>
      <point x="476" y="234" type="curve" smooth="yes"/>
      <point x="476" y="119"/>
      <point x="388" y="18"/>
      <point x="307" y="18" type="curve" smooth="yes"/>
      <point x="244" y="18"/>
      <point x="199" y="60"/>
      <point x="199" y="193" type="curve" smooth="yes"/>
      <point x="199" y="419"/>
      <point x="342" y="624"/>
      <point x="456" y="624" type="curve" smooth="yes"/>
      <point x="516" y="624"/>
      <point x="536" y="596"/>
      <point x="532" y="554" type="curve" smooth="yes"/>
      <point x="531" y="539"/>
      <point x="531" y="538"/>
      <point x="530" y="523" type="curve" smooth="yes"/>
      <point x="531" y="510"/>
      <point x="540" y="501"/>
      <point x="554" y="501" type="curve" smooth="yes"/>
      <point x="585" y="501"/>
      <point x="609" y="527"/>
      <point x="609" y="560" type="curve" smooth="yes"/>
      <point x="609" y="605"/>
      <point x="568" y="642"/>
    </contour>
  </outline>
</glyph>
<glyph name="A" format="2">
  <advance width="552"/>
  <unicode hex="0041"/>
  <anchor x="567" y="766" name="center"/>
  <outline>
    <contour>
      <point x="49" y="44" type="curve" smooth="yes"/>
      <point x="49" y="51"/>
      <point x="52" y="57"/>
      <point x="59" y="68" type="curve" smooth="yes"/>
      <point x="366" y="554" type="line" smooth="yes"/>
      <point x="397" y="603"/>
      <point x="422" y="635"/>
      <point x="433" y="646" type="curve"/>
      <point x="426" y="653" type="line"/>
      <point x="425" y="544"/>
      <point x="414" y="158"/>
      <point x="411" y="61" type="curve" smooth="yes"/>
      <point x="410" y="41"/>
      <point x="401" y="33"/>
      <point x="382" y="29" type="curve" smooth="yes"/>
      <point x="333" y="19" type="line" smooth="yes"/>
      <point x="328" y="18"/>
      <point x="323" y="14"/>
      <point x="323" y="9" type="curve" smooth="yes"/>
      <point x="323" y="3"/>
      <point x="329" y="0"/>
      <point x="334" y="0" type="curve" smooth="yes"/>
      <point x="497" y="0" type="line" smooth="yes"/>
      <point x="507" y="0"/>
      <point x="511" y="4"/>
      <point x="511" y="10" type="curve" smooth="yes"/>
      <point x="511" y="15"/>
      <point x="507" y="19"/>
      <point x="499" y="20" type="curve" smooth="yes"/>
      <point x="463" y="25"/>
      <point x="446" y="34"/>
      <point x="446" y="57" type="curve" smooth="yes"/>
      <point x="445" y="155"/>
      <point x="456" y="534"/>
      <point x="457" y="637" type="curve" smooth="yes"/>
      <point x="458" y="667"/>
      <point x="472" y="683"/>
      <point x="495" y="685" type="curve" smooth="yes"/>
      <point x="504" y="686"/>
      <point x="509" y="691"/>
      <point x="509" y="697" type="curve" smooth="yes"/>
      <point x="509" y="703"/>
      <point x="504" y="706"/>
      <point x="496" y="706" type="curve" smooth="yes"/>
      <point x="456" y="706"/>
      <point x="412" y="664"/>
      <point x="351" y="569" type="curve" smooth="yes"/>
      <point x="29" y="64" type="line" smooth="yes"/>
      <point x="14" y="40"/>
      <point x="-8" y="29"/>
      <point x="-35" y="26" type="curve" smooth="yes"/>
      <point x="-47" y="24"/>
      <point x="-54" y="20"/>
      <point x="-54" y="12" type="curve" smooth="yes"/>
      <point x="-54" y="4"/>
      <point x="-48" y="0"/>
      <point x="-35" y="0" type="curve" smooth="yes"/>
      <point x="104" y="0" type="line" smooth="yes"/>
      <point x="115" y="0"/>
      <point x="120" y="4"/>
      <point x="120" y="11" type="curve" smooth="yes"/>
      <point x="120" y="17"/>
      <point x="116" y="22"/>
      <point x="107" y="23" type="curve" smooth="yes"/>
      <point x="59" y="25"/>
      <point x="49" y="34"/>
    </contour>
    <contour>
      <point x="149" y="242" type="line"/>
      <point x="435" y="242" type="line"/>
      <point x="436" y="261" type="line"/>
      <point x="161" y="261" type="line"/>
    </contour>
  </outline>
</glyph>
<glyph name="B" format="2">
  <advance width="586"/>
  <unicode hex="0042"/>
  <outline>
    <contour>
      <point x="286" y="646" type="curve" smooth="yes"/>
      <point x="292" y="666"/>
      <point x="315" y="678"/>
      <point x="374" y="678" type="curve" smooth="yes"/>
      <point x="468" y="678"/>
      <point x="529" y="625"/>
      <point x="529" y="535" type="curve" smooth="yes"/>
      <point x="529" y="424"/>
      <point x="431" y="336"/>
      <point x="302" y="336" type="curve" smooth="yes"/>
      <point x="191" y="336" type="line"/>
      <point x="183" y="317" type="line"/>
      <point x="318" y="317" type="line" smooth="yes"/>
      <point x="423" y="317"/>
      <point x="481" y="270"/>
      <point x="481" y="202" type="curve" smooth="yes"/>
      <point x="481" y="102"/>
      <point x="382" y="20"/>
      <point x="238" y="20" type="curve" smooth="yes"/>
      <point x="152" y="20"/>
      <point x="128" y="32"/>
      <point x="133" y="57" type="curve" smooth="yes"/>
      <point x="154" y="165"/>
      <point x="239" y="479"/>
    </contour>
    <contour>
      <point x="200" y="700" type="line" smooth="yes"/>
      <point x="181" y="700"/>
      <point x="173" y="694"/>
      <point x="173" y="687" type="curve" smooth="yes"/>
      <point x="173" y="682"/>
      <point x="179" y="680"/>
      <point x="189" y="678" type="curve" smooth="yes"/>
      <point x="230" y="673" type="line" smooth="yes"/>
      <point x="241" y="671"/>
      <point x="250" y="664"/>
      <point x="248" y="647" type="curve" smooth="yes"/>
      <point x="232" y="566"/>
      <point x="164" y="297"/>
      <point x="94" y="57" type="curve" smooth="yes"/>
      <point x="89" y="42"/>
      <point x="74" y="30"/>
      <point x="52" y="25" type="curve" smooth="yes"/>
      <point x="18" y="20" type="line" smooth="yes"/>
      <point x="0" y="17"/>
      <point x="-9" y="13"/>
      <point x="-9" y="9" type="curve" smooth="yes"/>
      <point x="-9" y="3"/>
      <point x="-4" y="0"/>
      <point x="7" y="0" type="curve" smooth="yes"/>
      <point x="229" y="0" type="line" smooth="yes"/>
      <point x="407" y="0"/>
      <point x="519" y="89"/>
      <point x="519" y="199" type="curve" smooth="yes"/>
      <point x="519" y="275"/>
      <point x="453" y="333"/>
      <point x="319" y="333" type="curve"/>
      <point x="322" y="325" type="line"/>
      <point x="451" y="325"/>
      <point x="567" y="410"/>
      <point x="567" y="536" type="curve" smooth="yes"/>
      <point x="567" y="640"/>
      <point x="493" y="700"/>
      <point x="359" y="700" type="curve" smooth="yes"/>
    </contour>
  </outline>
</glyph>
<glyph name="E" format="2">
  <advance width="562"/>
  <unicode hex="0045"/>
  <anchor x="472" y="735" name="center"/>
  <outline>
    <contour>
      <point x="191" y="354" type="line"/>
      <point x="186" y="335" type="line"/>
      <point x="392" y="335" type="line" smooth="yes"/>
      <point x="423" y="335"/>
      <point x="438" y="325"/>
      <point x="453" y="278" type="curve" smooth="yes"/>
      <point x="456" y="269"/>
      <point x="460" y="265"/>
      <point x="467" y="265" type="curve" smooth="yes"/>
      <point x="473" y="265"/>
      <point x="478" y="271"/>
      <point x="475" y="282" type="curve" smooth="yes"/>
      <point x="445" y="423" type="line" smooth="yes"/>
      <point x="444" y="429"/>
      <point x="441" y="434"/>
      <point x="433" y="434" type="curve" smooth="yes"/>
      <point x="428" y="434"/>
      <point x="424" y="430"/>
      <point x="424" y="422" type="curve" smooth="yes"/>
      <point x="430" y="368"/>
      <point x="416" y="354"/>
      <point x="385" y="354" type="curve" smooth="yes"/>
    </contour>
    <contour>
      <point x="358" y="1" type="line" smooth="yes"/>
      <point x="373" y="1"/>
      <point x="380" y="-13"/>
      <point x="391" y="-13" type="curve" smooth="yes"/>
      <point x="442" y="-13"/>
      <point x="503" y="71"/>
      <point x="503" y="141" type="curve" smooth="yes"/>
      <point x="503" y="148"/>
      <point x="500" y="152"/>
      <point x="495" y="152" type="curve" smooth="yes"/>
      <point x="492" y="152"/>
      <point x="487" y="149"/>
      <point x="486" y="144" type="curve" smooth="yes"/>
      <point x="454" y="55"/>
      <point x="406" y="20"/>
      <point x="337" y="20" type="curve" smooth="yes"/>
      <point x="179" y="20" type="line" smooth="yes"/>
      <point x="138" y="20"/>
      <point x="126" y="35"/>
      <point x="133" y="62" type="curve" smooth="yes"/>
      <point x="151" y="138"/>
      <point x="250" y="518"/>
      <point x="295" y="683" type="curve"/>
      <point x="485" y="683" type="line" smooth="yes"/>
      <point x="522" y="683"/>
      <point x="547" y="667"/>
      <point x="576" y="589" type="curve" smooth="yes"/>
      <point x="581" y="578"/>
      <point x="586" y="572"/>
      <point x="593" y="572" type="curve" smooth="yes"/>
      <point x="600" y="572"/>
      <point x="605" y="579"/>
      <point x="602" y="592" type="curve" smooth="yes"/>
      <point x="576" y="704" type="line" smooth="yes"/>
      <point x="573" y="716"/>
      <point x="570" y="720"/>
      <point x="562" y="720" type="curve" smooth="yes"/>
      <point x="548" y="720"/>
      <point x="533" y="701"/>
      <point x="508" y="701" type="curve" smooth="yes"/>
      <point x="196" y="701" type="line" smooth="yes"/>
      <point x="188" y="701"/>
      <point x="182" y="698"/>
      <point x="182" y="691" type="curve" smooth="yes"/>
      <point x="182" y="686"/>
      <point x="187" y="681"/>
      <point x="196" y="679" type="curve" smooth="yes"/>
      <point x="236" y="674" type="line" smooth="yes"/>
      <point x="249" y="671"/>
      <point x="254" y="656"/>
      <point x="250" y="637" type="curve" smooth="yes"/>
      <point x="225" y="532"/>
      <point x="119" y="142"/>
      <point x="97" y="62" type="curve" smooth="yes"/>
      <point x="90" y="40"/>
      <point x="77" y="32"/>
      <point x="57" y="29" type="curve" smooth="yes"/>
      <point x="14" y="22" type="line" smooth="yes"/>
      <point x="5" y="21"/>
      <point x="-1" y="17"/>
      <point x="-1" y="11" type="curve" smooth="yes"/>
      <point x="-1" y="5"/>
      <point x="3" y="1"/>
      <point x="11" y="1" type="curve" smooth="yes"/>
    </contour>
  </outline>
</glyph>
<glyph name="F" format="2">
  <advance width="521"/>
  <unicode hex="0046"/>
  <outline>
    <contour>
      <point x="175" y="691" type="curve" smooth="yes"/>
      <point x="173" y="683"/>
      <point x="180" y="681"/>
      <point x="194" y="678" type="curve" smooth="yes"/>
      <point x="225" y="673" type="line" smooth="yes"/>
      <point x="239" y="670"/>
      <point x="247" y="661"/>
      <point x="243" y="644" type="curve" smooth="yes"/>
      <point x="208" y="491"/>
      <point x="140" y="242"/>
      <point x="89" y="64" type="curve" smooth="yes"/>
      <point x="83" y="42"/>
      <point x="72" y="32"/>
      <point x="51" y="29" type="curve" smooth="yes"/>
      <point x="22" y="25" type="line" smooth="yes"/>
      <point x="0" y="21"/>
      <point x="-6" y="19"/>
      <point x="-6" y="11" type="curve" smooth="yes"/>
      <point x="-7" y="3"/>
      <point x="-2" y="0"/>
      <point x="7" y="0" type="curve" smooth="yes"/>
      <point x="185" y="0" type="line" smooth="yes"/>
      <point x="205" y="0"/>
      <point x="211" y="5"/>
      <point x="211" y="12" type="curve" smooth="yes"/>
      <point x="211" y="19"/>
      <point x="204" y="22"/>
      <point x="185" y="24" type="curve" smooth="yes"/>
      <point x="147" y="28" type="line" smooth="yes"/>
      <point x="124" y="31"/>
      <point x="120" y="43"/>
      <point x="124" y="61" type="curve" smooth="yes"/>
      <point x="158" y="204"/>
      <point x="232" y="482"/>
      <point x="287" y="682" type="curve"/>
      <point x="460" y="682" type="line" smooth="yes"/>
      <point x="508" y="682"/>
      <point x="532" y="663"/>
      <point x="545" y="633" type="curve" smooth="yes"/>
      <point x="559" y="598" type="line" smooth="yes"/>
      <point x="567" y="581"/>
      <point x="571" y="572"/>
      <point x="581" y="572" type="curve" smooth="yes"/>
      <point x="588" y="572"/>
      <point x="592" y="579"/>
      <point x="589" y="592" type="curve" smooth="yes"/>
      <point x="565" y="707" type="line" smooth="yes"/>
      <point x="563" y="716"/>
      <point x="559" y="719"/>
      <point x="552" y="719" type="curve" smooth="yes"/>
      <point x="537" y="719"/>
      <point x="524" y="700"/>
      <point x="497" y="700" type="curve" smooth="yes"/>
      <point x="193" y="700" type="line" smooth="yes"/>
      <point x="184" y="700"/>
      <point x="176" y="698"/>
    </contour>
    <contour>
      <point x="182" y="336" type="line"/>
      <point x="177" y="318" type="line"/>
      <point x="376" y="318" type="line" smooth="yes"/>
      <point x="409" y="318"/>
      <point x="420" y="306"/>
      <point x="436" y="266" type="curve" smooth="yes"/>
      <point x="441" y="251"/>
      <point x="445" y="247"/>
      <point x="452" y="247" type="curve" smooth="yes"/>
      <point x="458" y="248"/>
      <point x="463" y="253"/>
      <point x="461" y="264" type="curve" smooth="yes"/>
      <point x="432" y="403" type="line" smooth="yes"/>
      <point x="430" y="411"/>
      <point x="426" y="416"/>
      <point x="419" y="416" type="curve" smooth="yes"/>
      <point x="412" y="416"/>
      <point x="409" y="410"/>
      <point x="411" y="400" type="curve" smooth="yes"/>
      <point x="414" y="349"/>
      <point x="396" y="336"/>
      <point x="369" y="336" type="curve" smooth="yes"/>
    </contour>
  </outline>
</glyph>
<glyph name="G" format="2">
  <advance width="648"/>
  <unicode hex="0047"/>
  <anchor x="505" y="783" name="center"/>
  <outline>
    <contour>
      <point x="464" y="714" type="curve" smooth="yes"/>
      <point x="241" y="714"/>
      <point x="55" y="485"/>
      <point x="55" y="245" type="curve" smooth="yes"/>
      <point x="55" y="90"/>
      <point x="145" y="-15"/>
      <point x="284" y="-15" type="curve" smooth="yes"/>
      <point x="391" y="-15"/>
      <point x="439" y="29"/>
      <point x="457" y="29" type="curve" smooth="yes"/>
      <point x="468" y="29"/>
      <point x="459" y="-15"/>
      <point x="473" y="-15" type="curve" smooth="yes"/>
      <point x="482" y="-15"/>
      <point x="488" y="-11"/>
      <point x="491" y="3" type="curve" smooth="yes"/>
      <point x="561" y="245" type="line" smooth="yes"/>
      <point x="565" y="257"/>
      <point x="574" y="266"/>
      <point x="594" y="269" type="curve" smooth="yes"/>
      <point x="622" y="274" type="line" smooth="yes"/>
      <point x="635" y="276"/>
      <point x="640" y="281"/>
      <point x="641" y="286" type="curve" smooth="yes"/>
      <point x="642" y="295"/>
      <point x="639" y="297"/>
      <point x="629" y="297" type="curve" smooth="yes"/>
      <point x="465" y="297" type="line" smooth="yes"/>
      <point x="455" y="297"/>
      <point x="449" y="295"/>
      <point x="449" y="287" type="curve" smooth="yes"/>
      <point x="449" y="280"/>
      <point x="453" y="275"/>
      <point x="463" y="274" type="curve" smooth="yes"/>
      <point x="504" y="269" type="line" smooth="yes"/>
      <point x="522" y="267"/>
      <point x="527" y="254"/>
      <point x="521" y="228" type="curve" smooth="yes"/>
      <point x="492" y="122" type="line" smooth="yes"/>
      <point x="472" y="50"/>
      <point x="402" y="7"/>
      <point x="296" y="7" type="curve" smooth="yes"/>
      <point x="163" y="7"/>
      <point x="93" y="98"/>
      <point x="93" y="239" type="curve" smooth="yes"/>
      <point x="93" y="474"/>
      <point x="269" y="694"/>
      <point x="466" y="694" type="curve" smooth="yes"/>
      <point x="543" y="694"/>
      <point x="596" y="664"/>
      <point x="626" y="587" type="curve" smooth="yes"/>
      <point x="639" y="551" type="line" smooth="yes"/>
      <point x="641" y="546"/>
      <point x="646" y="539"/>
      <point x="652" y="539" type="curve" smooth="yes"/>
      <point x="658" y="539"/>
      <point x="663" y="543"/>
      <point x="662" y="552" type="curve" smooth="yes"/>
      <point x="646" y="690" type="line" smooth="yes"/>
      <point x="644" y="704"/>
      <point x="639" y="710"/>
      <point x="630" y="710" type="curve" smooth="yes"/>
      <point x="618" y="710"/>
      <point x="610" y="685"/>
      <point x="595" y="685" type="curve" smooth="yes"/>
      <point x="580" y="685"/>
      <point x="533" y="714"/>
    </contour>
  </outline>
</glyph>
<glyph name="H" format="2">
  <advance width="697"/>
  <unicode hex="0048"/>
  <outline>
    <contour>
      <point x="190" y="337" type="line"/>
      <point x="184" y="316" type="line"/>
      <point x="559" y="316" type="line"/>
      <point x="566" y="337" type="line"/>
    </contour>
    <contour>
      <point x="135" y="68" type="curve" smooth="yes"/>
      <point x="151" y="145"/>
      <point x="253" y="528"/>
      <point x="285" y="641" type="curve" smooth="yes"/>
      <point x="290" y="659"/>
      <point x="302" y="668"/>
      <point x="323" y="672" type="curve" smooth="yes"/>
      <point x="364" y="680" type="line" smooth="yes"/>
      <point x="379" y="683"/>
      <point x="384" y="686"/>
      <point x="384" y="693" type="curve" smooth="yes"/>
      <point x="384" y="698"/>
      <point x="381" y="700"/>
      <point x="371" y="700" type="curve" smooth="yes"/>
      <point x="197" y="700" type="line" smooth="yes"/>
      <point x="182" y="700"/>
      <point x="173" y="698"/>
      <point x="173" y="692" type="curve" smooth="yes"/>
      <point x="173" y="684"/>
      <point x="177" y="681"/>
      <point x="190" y="679" type="curve" smooth="yes"/>
      <point x="226" y="673" type="line" smooth="yes"/>
      <point x="246" y="669"/>
      <point x="250" y="658"/>
      <point x="246" y="634" type="curve" smooth="yes"/>
      <point x="224" y="531"/>
      <point x="122" y="151"/>
      <point x="97" y="67" type="curve" smooth="yes"/>
      <point x="90" y="44"/>
      <point x="76" y="28"/>
      <point x="52" y="25" type="curve" smooth="yes"/>
      <point x="15" y="21" type="line" smooth="yes"/>
      <point x="3" y="19"/>
      <point x="-2" y="15"/>
      <point x="-2" y="9" type="curve" smooth="yes"/>
      <point x="-2" y="3"/>
      <point x="2" y="0"/>
      <point x="13" y="0" type="curve" smooth="yes"/>
      <point x="189" y="0" type="line" smooth="yes"/>
      <point x="197" y="0"/>
      <point x="205" y="2"/>
      <point x="205" y="8" type="curve" smooth="yes"/>
      <point x="205" y="15"/>
      <point x="201" y="19"/>
      <point x="190" y="21" type="curve" smooth="yes"/>
      <point x="155" y="26" type="line" smooth="yes"/>
      <point x="134" y="29"/>
      <point x="130" y="42"/>
    </contour>
    <contour>
      <point x="516" y="68" type="curve" smooth="yes"/>
      <point x="532" y="145"/>
      <point x="634" y="528"/>
      <point x="666" y="641" type="curve" smooth="yes"/>
      <point x="671" y="659"/>
      <point x="683" y="668"/>
      <point x="704" y="672" type="curve" smooth="yes"/>
      <point x="745" y="680" type="line" smooth="yes"/>
      <point x="760" y="683"/>
      <point x="764" y="686"/>
      <point x="764" y="693" type="curve" smooth="yes"/>
      <point x="764" y="698"/>
      <point x="761" y="700"/>
      <point x="751" y="700" type="curve" smooth="yes"/>
      <point x="578" y="700" type="line" smooth="yes"/>
      <point x="562" y="700"/>
      <point x="554" y="698"/>
      <point x="554" y="692" type="curve" smooth="yes"/>
      <point x="554" y="684"/>
      <point x="558" y="681"/>
      <point x="571" y="679" type="curve" smooth="yes"/>
      <point x="607" y="673" type="line" smooth="yes"/>
      <point x="627" y="669"/>
      <point x="631" y="658"/>
      <point x="626" y="634" type="curve" smooth="yes"/>
      <point x="605" y="531"/>
      <point x="503" y="151"/>
      <point x="478" y="67" type="curve" smooth="yes"/>
      <point x="470" y="44"/>
      <point x="457" y="28"/>
      <point x="433" y="25" type="curve" smooth="yes"/>
      <point x="396" y="21" type="line" smooth="yes"/>
      <point x="384" y="19"/>
      <point x="379" y="15"/>
      <point x="379" y="9" type="curve" smooth="yes"/>
      <point x="379" y="3"/>
      <point x="383" y="0"/>
      <point x="393" y="0" type="curve" smooth="yes"/>
      <point x="570" y="0" type="line" smooth="yes"/>
      <point x="578" y="0"/>
      <point x="586" y="2"/>
      <point x="586" y="8" type="curve" smooth="yes"/>
      <point x="586" y="15"/>
      <point x="582" y="19"/>
      <point x="571" y="21" type="curve" smooth="yes"/>
      <point x="535" y="26" type="line" smooth="yes"/>
      <point x="515" y="29"/>
      <point x="511" y="42"/>
    </contour>
  </outline>
</glyph>
<glyph name="I" format="2">
  <advance width="322"/>
  <unicode hex="0049"/>
  <outline>
    <contour>
      <point x="138" y="68" type="curve" smooth="yes"/>
      <point x="154" y="145"/>
      <point x="256" y="529"/>
      <point x="288" y="641" type="curve" smooth="yes"/>
      <point x="293" y="659"/>
      <point x="305" y="668"/>
      <point x="326" y="672" type="curve" smooth="yes"/>
      <point x="367" y="680" type="line" smooth="yes"/>
      <point x="382" y="683"/>
      <point x="387" y="686"/>
      <point x="387" y="693" type="curve" smooth="yes"/>
      <point x="387" y="698"/>
      <point x="383" y="700"/>
      <point x="374" y="700" type="curve" smooth="yes"/>
      <point x="200" y="700" type="line" smooth="yes"/>
      <point x="184" y="700"/>
      <point x="176" y="698"/>
      <point x="176" y="692" type="curve" smooth="yes"/>
      <point x="176" y="684"/>
      <point x="180" y="681"/>
      <point x="193" y="679" type="curve" smooth="yes"/>
      <point x="229" y="673" type="line" smooth="yes"/>
      <point x="249" y="669"/>
      <point x="253" y="658"/>
      <point x="248" y="634" type="curve" smooth="yes"/>
      <point x="227" y="530"/>
      <point x="125" y="151"/>
      <point x="100" y="67" type="curve" smooth="yes"/>
      <point x="93" y="44"/>
      <point x="79" y="28"/>
      <point x="55" y="25" type="curve" smooth="yes"/>
      <point x="18" y="21" type="line" smooth="yes"/>
      <point x="6" y="19"/>
      <point x="1" y="15"/>
      <point x="1" y="9" type="curve" smooth="yes"/>
      <point x="1" y="3"/>
      <point x="5" y="0"/>
      <point x="16" y="0" type="curve" smooth="yes"/>
      <point x="192" y="0" type="line" smooth="yes"/>
      <point x="200" y="0"/>
      <point x="208" y="2"/>
      <point x="208" y="8" type="curve" smooth="yes"/>
      <point x="208" y="15"/>
      <point x="204" y="19"/>
      <point x="193" y="21" type="curve" smooth="yes"/>
      <point x="158" y="26" type="line" smooth="yes"/>
      <point x="137" y="29"/>
      <point x="133" y="42"/>
    </contour>
  </outline>
</glyph>
<glyph name="J" format="2">
  <advance width="314"/>
  <unicode hex="004A"/>
  <outline>
    <contour>
      <point x="366" y="651" type="curve" smooth="yes"/>
      <point x="370" y="661"/>
      <point x="380" y="677"/>
      <point x="403" y="680" type="curve" smooth="yes"/>
      <point x="438" y="687" type="line" smooth="yes"/>
      <point x="448" y="687"/>
      <point x="451" y="682"/>
      <point x="458" y="691" type="curve" smooth="yes"/>
      <point x="463" y="697"/>
      <point x="454" y="700"/>
      <point x="440" y="700" type="curve" smooth="yes"/>
      <point x="270" y="700" type="line" smooth="yes"/>
      <point x="254" y="700"/>
      <point x="249" y="698"/>
      <point x="244" y="693" type="curve" smooth="yes"/>
      <point x="237" y="685"/>
      <point x="242" y="682"/>
      <point x="258" y="682" type="curve" smooth="yes"/>
      <point x="289" y="675" type="line" smooth="yes"/>
      <point x="307" y="672"/>
      <point x="306" y="666"/>
      <point x="303" y="651" type="curve" smooth="yes"/>
      <point x="267" y="459"/>
      <point x="222" y="229"/>
      <point x="152" y="31" type="curve" smooth="yes"/>
      <point x="124" y="-30"/>
      <point x="134" y="-60"/>
      <point x="134" y="-73" type="curve" smooth="yes"/>
      <point x="134" y="-96"/>
      <point x="123" y="-106"/>
      <point x="108" y="-106" type="curve" smooth="yes"/>
      <point x="94" y="-106"/>
      <point x="82" y="-70"/>
      <point x="65" y="-70" type="curve" smooth="yes"/>
      <point x="29" y="-70"/>
      <point x="11" y="-89"/>
      <point x="11" y="-114" type="curve" smooth="yes"/>
      <point x="11" y="-136"/>
      <point x="32" y="-161"/>
      <point x="68" y="-161" type="curve" smooth="yes"/>
      <point x="127" y="-161"/>
      <point x="181" y="-59"/>
      <point x="194" y="8" type="curve" smooth="yes"/>
      <point x="222" y="155"/>
      <point x="302" y="450"/>
    </contour>
  </outline>
</glyph>
<glyph name="M" format="2">
  <advance width="753"/>
  <unicode hex="004D"/>
  <outline>
    <contour>
      <point x="378" y="142" type="line"/>
      <point x="345" y="309"/>
      <point x="311" y="496"/>
      <point x="284" y="662" type="curve" smooth="yes"/>
      <point x="280" y="688"/>
      <point x="271" y="700"/>
      <point x="255" y="700" type="curve" smooth="yes"/>
      <point x="188" y="700" type="line" smooth="yes"/>
      <point x="179" y="700"/>
      <point x="174" y="698"/>
      <point x="172" y="692" type="curve" smooth="yes"/>
      <point x="171" y="684"/>
      <point x="176" y="680"/>
      <point x="184" y="679" type="curve" smooth="yes"/>
      <point x="229" y="669" type="line" smooth="yes"/>
      <point x="246" y="666"/>
      <point x="251" y="645"/>
      <point x="245" y="621" type="curve" smooth="yes"/>
      <point x="82" y="68" type="line" smooth="yes"/>
      <point x="77" y="50"/>
      <point x="67" y="37"/>
      <point x="44" y="33" type="curve" smooth="yes"/>
      <point x="4" y="26" type="line" smooth="yes"/>
      <point x="-9" y="23"/>
      <point x="-14" y="21"/>
      <point x="-16" y="12" type="curve" smooth="yes"/>
      <point x="-17" y="5"/>
      <point x="-12" y="0"/>
      <point x="-1" y="0" type="curve" smooth="yes"/>
      <point x="157" y="0" type="line" smooth="yes"/>
      <point x="169" y="0"/>
      <point x="176" y="3"/>
      <point x="178" y="11" type="curve" smooth="yes"/>
      <point x="180" y="16"/>
      <point x="175" y="20"/>
      <point x="168" y="22" type="curve" smooth="yes"/>
      <point x="119" y="33" type="line" smooth="yes"/>
      <point x="102" y="36"/>
      <point x="99" y="48"/>
      <point x="105" y="65" type="curve" smooth="yes"/>
      <point x="274" y="640" type="line"/>
      <point x="253" y="636" type="line"/>
      <point x="281" y="495"/>
      <point x="316" y="297"/>
      <point x="347" y="113" type="curve" smooth="yes"/>
      <point x="348" y="107"/>
      <point x="351" y="98"/>
      <point x="358" y="98" type="curve" smooth="yes"/>
      <point x="366" y="98"/>
      <point x="371" y="104"/>
      <point x="382" y="121" type="curve" smooth="yes"/>
      <point x="697" y="639" type="line"/>
      <point x="681" y="638" type="line"/>
      <point x="657" y="483"/>
      <point x="604" y="174"/>
      <point x="583" y="63" type="curve" smooth="yes"/>
      <point x="579" y="42"/>
      <point x="564" y="32"/>
      <point x="545" y="29" type="curve" smooth="yes"/>
      <point x="505" y="21" type="line" smooth="yes"/>
      <point x="497" y="20"/>
      <point x="491" y="19"/>
      <point x="490" y="12" type="curve" smooth="yes"/>
      <point x="489" y="5"/>
      <point x="492" y="0"/>
      <point x="502" y="0" type="curve" smooth="yes"/>
      <point x="675" y="0" type="line" smooth="yes"/>
      <point x="684" y="0"/>
      <point x="689" y="2"/>
      <point x="690" y="9" type="curve" smooth="yes"/>
      <point x="691" y="16"/>
      <point x="687" y="19"/>
      <point x="679" y="21" type="curve" smooth="yes"/>
      <point x="637" y="29" type="line" smooth="yes"/>
      <point x="620" y="34"/>
      <point x="615" y="44"/>
      <point x="618" y="65" type="curve" smooth="yes"/>
      <point x="634" y="171"/>
      <point x="690" y="496"/>
      <point x="715" y="637" type="curve" smooth="yes"/>
      <point x="718" y="658"/>
      <point x="730" y="670"/>
      <point x="747" y="672" type="curve" smooth="yes"/>
      <point x="782" y="678" type="line" smooth="yes"/>
      <point x="792" y="679"/>
      <point x="799" y="680"/>
      <point x="800" y="691" type="curve" smooth="yes"/>
      <point x="801" y="696"/>
      <point x="798" y="700"/>
      <point x="788" y="700" type="curve" smooth="yes"/>
      <point x="734" y="700" type="line" smooth="yes"/>
      <point x="719" y="700"/>
      <point x="705" y="693"/>
      <point x="695" y="675" type="curve" smooth="yes"/>
      <point x="369" y="134" type="line"/>
    </contour>
  </outline>
</glyph>
<glyph name="N" format="2">
  <advance width="654"/>
  <unicode hex="004E"/>
  <outline>
    <contour>
      <point x="119" y="77" type="line" smooth="yes"/>
      <point x="112" y="51"/>
      <point x="123" y="32"/>
      <point x="149" y="27" type="curve" smooth="yes"/>
      <point x="183" y="22" type="line" smooth="yes"/>
      <point x="191" y="21"/>
      <point x="195" y="16"/>
      <point x="195" y="9" type="curve" smooth="yes"/>
      <point x="195" y="2"/>
      <point x="190" y="0"/>
      <point x="181" y="0" type="curve" smooth="yes"/>
      <point x="7" y="0" type="line" smooth="yes"/>
      <point x="-3" y="0"/>
      <point x="-9" y="4"/>
      <point x="-9" y="11" type="curve" smooth="yes"/>
      <point x="-9" y="16"/>
      <point x="-3" y="21"/>
      <point x="7" y="23" type="curve" smooth="yes"/>
      <point x="40" y="27" type="line" smooth="yes"/>
      <point x="67" y="32"/>
      <point x="87" y="49"/>
      <point x="94" y="74" type="curve" smooth="yes"/>
      <point x="226" y="548" type="line" smooth="yes"/>
      <point x="232" y="568"/>
      <point x="229" y="590"/>
      <point x="221" y="605" type="curve" smooth="yes"/>
      <point x="183" y="677" type="line" smooth="yes"/>
      <point x="176" y="688"/>
      <point x="180" y="700"/>
      <point x="191" y="700" type="curve" smooth="yes"/>
      <point x="208" y="700" type="line" smooth="yes"/>
      <point x="221" y="700"/>
      <point x="225" y="691"/>
      <point x="235" y="671" type="curve" smooth="yes"/>
      <point x="291" y="543"/>
      <point x="442" y="209"/>
      <point x="497" y="87" type="curve"/>
      <point x="479" y="82" type="line"/>
      <point x="611" y="576" type="line" smooth="yes"/>
      <point x="635" y="666"/>
      <point x="676" y="709"/>
      <point x="717" y="709" type="curve" smooth="yes"/>
      <point x="731" y="709"/>
      <point x="740" y="700"/>
      <point x="740" y="688" type="curve" smooth="yes"/>
      <point x="740" y="671"/>
      <point x="728" y="662"/>
      <point x="703" y="654" type="curve" smooth="yes"/>
      <point x="668" y="642"/>
      <point x="643" y="611"/>
      <point x="629" y="560" type="curve" smooth="yes"/>
      <point x="510" y="111" type="line" smooth="yes"/>
      <point x="506" y="99"/>
      <point x="505" y="90"/>
      <point x="511" y="74" type="curve" smooth="yes"/>
      <point x="529" y="25" type="line" smooth="yes"/>
      <point x="536" y="8"/>
      <point x="529" y="0"/>
      <point x="515" y="0" type="curve" smooth="yes"/>
      <point x="491" y="0" type="line" smooth="yes"/>
      <point x="478" y="0"/>
      <point x="471" y="12"/>
      <point x="471" y="29" type="curve" smooth="yes"/>
      <point x="471" y="45"/>
      <point x="470" y="54"/>
      <point x="461" y="75" type="curve" smooth="yes"/>
      <point x="418" y="179"/>
      <point x="307" y="426"/>
      <point x="242" y="571" type="curve"/>
      <point x="259" y="578" type="line"/>
    </contour>
  </outline>
</glyph>
<glyph name="O" format="2">
  <advance width="671"/>
  <unicode hex="004F"/>
  <anchor x="478" y="773" name="center"/>
  <outline>
    <contour>
      <point x="464" y="714" type="curve" smooth="yes"/>
      <point x="289" y="714"/>
      <point x="132" y="570"/>
      <point x="77" y="378" type="curve" smooth="yes"/>
      <point x="8" y="135"/>
      <point x="113" y="-14"/>
      <point x="272" y="-14" type="curve" smooth="yes"/>
      <point x="442" y="-14"/>
      <point x="600" y="108"/>
      <point x="659" y="340" type="curve" smooth="yes"/>
      <point x="713" y="553"/>
      <point x="618" y="714"/>
    </contour>
    <contour>
      <point x="283" y="10" type="curve" smooth="yes"/>
      <point x="134" y="10"/>
      <point x="53" y="129"/>
      <point x="114" y="371" type="curve" smooth="yes"/>
      <point x="161" y="562"/>
      <point x="303" y="690"/>
      <point x="454" y="690" type="curve" smooth="yes"/>
      <point x="590" y="690"/>
      <point x="681" y="558"/>
      <point x="623" y="347" type="curve" smooth="yes"/>
      <point x="557" y="110"/>
      <point x="413" y="10"/>
    </contour>
  </outline>
</glyph>
<glyph name="Q" format="2">
  <advance width="743"/>
  <unicode hex="0051"/>
  <outline>
    <contour>
      <point x="392" y="79" type="curve" smooth="yes"/>
      <point x="392" y="-29"/>
      <point x="455" y="-122"/>
      <point x="528" y="-122" type="curve" smooth="yes"/>
      <point x="552" y="-122"/>
      <point x="572" y="-103"/>
      <point x="587" y="-76" type="curve" smooth="yes"/>
      <point x="593" y="-66"/>
      <point x="594" y="-61"/>
      <point x="594" y="-56" type="curve" smooth="yes"/>
      <point x="594" y="-52"/>
      <point x="592" y="-49"/>
      <point x="586" y="-49" type="curve" smooth="yes"/>
      <point x="571" y="-49"/>
      <point x="558" y="-56"/>
      <point x="535" y="-56" type="curve" smooth="yes"/>
      <point x="474" y="-56"/>
      <point x="426" y="29"/>
      <point x="426" y="125" type="curve" smooth="yes"/>
      <point x="426" y="143"/>
      <point x="423" y="155"/>
      <point x="423" y="162" type="curve" smooth="yes"/>
      <point x="423" y="170"/>
      <point x="421" y="177"/>
      <point x="416" y="177" type="curve" smooth="yes"/>
      <point x="402" y="177"/>
      <point x="392" y="141"/>
    </contour>
    <component base="O"/>
  </outline>
</glyph>
<glyph name="R" format="2">
  <advance width="598"/>
  <unicode hex="0052"/>
  <outline>
    <contour>
      <point x="179" y="308" type="line"/>
      <point x="213" y="287"/>
      <point x="263" y="272"/>
      <point x="318" y="272" type="curve" smooth="yes"/>
      <point x="472" y="275"/>
      <point x="592" y="358"/>
      <point x="592" y="505" type="curve" smooth="yes"/>
      <point x="592" y="624"/>
      <point x="507" y="700"/>
      <point x="360" y="700" type="curve" smooth="yes"/>
      <point x="189" y="700" type="line" smooth="yes"/>
      <point x="179" y="700"/>
      <point x="174" y="697"/>
      <point x="174" y="691" type="curve" smooth="yes"/>
      <point x="174" y="685"/>
      <point x="176" y="681"/>
      <point x="189" y="679" type="curve" smooth="yes"/>
      <point x="226" y="673" type="line" smooth="yes"/>
      <point x="244" y="670"/>
      <point x="250" y="660"/>
      <point x="246" y="640" type="curve" smooth="yes"/>
      <point x="227" y="542"/>
      <point x="124" y="158"/>
      <point x="97" y="66" type="curve" smooth="yes"/>
      <point x="88" y="38"/>
      <point x="72" y="27"/>
      <point x="49" y="24" type="curve" smooth="yes"/>
      <point x="17" y="21" type="line" smooth="yes"/>
      <point x="4" y="20"/>
      <point x="-2" y="16"/>
      <point x="-2" y="9" type="curve" smooth="yes"/>
      <point x="-2" y="3"/>
      <point x="2" y="0"/>
      <point x="10" y="0" type="curve" smooth="yes"/>
      <point x="190" y="0" type="line" smooth="yes"/>
      <point x="199" y="0"/>
      <point x="205" y="3"/>
      <point x="205" y="9" type="curve" smooth="yes"/>
      <point x="205" y="16"/>
      <point x="201" y="19"/>
      <point x="190" y="21" type="curve" smooth="yes"/>
      <point x="151" y="26" type="line" smooth="yes"/>
      <point x="138" y="29"/>
      <point x="129" y="43"/>
      <point x="134" y="65" type="curve" smooth="yes"/>
      <point x="154" y="156"/>
      <point x="258" y="539"/>
      <point x="283" y="636" type="curve" smooth="yes"/>
      <point x="292" y="668"/>
      <point x="311" y="681"/>
      <point x="359" y="681" type="curve" smooth="yes"/>
      <point x="487" y="681"/>
      <point x="555" y="616"/>
      <point x="555" y="507" type="curve" smooth="yes"/>
      <point x="555" y="373"/>
      <point x="456" y="294"/>
      <point x="310" y="294" type="curve" smooth="yes"/>
      <point x="260" y="294"/>
      <point x="218" y="311"/>
      <point x="191" y="327" type="curve"/>
    </contour>
    <contour>
      <point x="322" y="285" type="line"/>
      <point x="384" y="115" type="line" smooth="yes"/>
      <point x="420" y="19"/>
      <point x="448" y="-9"/>
      <point x="485" y="-9" type="curve" smooth="yes"/>
      <point x="518" y="-9"/>
      <point x="541" y="9"/>
      <point x="541" y="31" type="curve" smooth="yes"/>
      <point x="541" y="38"/>
      <point x="536" y="43"/>
      <point x="530" y="43" type="curve" smooth="yes"/>
      <point x="525" y="43"/>
      <point x="522" y="39"/>
      <point x="518" y="35" type="curve" smooth="yes"/>
      <point x="513" y="28"/>
      <point x="506" y="22"/>
      <point x="493" y="22" type="curve" smooth="yes"/>
      <point x="471" y="22"/>
      <point x="450" y="38"/>
      <point x="417" y="126" type="curve" smooth="yes"/>
      <point x="358" y="286" type="line"/>
    </contour>
  </outline>
</glyph>
<glyph name="S" format="2">
  <advance width="475"/>
  <unicode hex="0053"/>
  <outline>
    <contour>
      <point x="206" y="-10" type="curve" smooth="yes"/>
      <point x="319" y="-10"/>
      <point x="408" y="62"/>
      <point x="408" y="187" type="curve" smooth="yes"/>
      <point x="408" y="249"/>
      <point x="378" y="292"/>
      <point x="295" y="356" type="curve" smooth="yes"/>
      <point x="216" y="418"/>
      <point x="185" y="469"/>
      <point x="185" y="528" type="curve" smooth="yes"/>
      <point x="185" y="617"/>
      <point x="259" y="689"/>
      <point x="361" y="689" type="curve" smooth="yes"/>
      <point x="424" y="689"/>
      <point x="464" y="657"/>
      <point x="479" y="596" type="curve" smooth="yes"/>
      <point x="485" y="572" type="line" smooth="yes"/>
      <point x="488" y="561"/>
      <point x="495" y="552"/>
      <point x="509" y="552" type="curve" smooth="yes"/>
      <point x="520" y="552"/>
      <point x="529" y="564"/>
      <point x="529" y="580" type="curve" smooth="yes"/>
      <point x="529" y="647"/>
      <point x="470" y="710"/>
      <point x="365" y="710" type="curve" smooth="yes"/>
      <point x="237" y="710"/>
      <point x="152" y="612"/>
      <point x="152" y="510" type="curve" smooth="yes"/>
      <point x="152" y="439"/>
      <point x="190" y="389"/>
      <point x="273" y="325" type="curve" smooth="yes"/>
      <point x="348" y="269"/>
      <point x="375" y="226"/>
      <point x="375" y="168" type="curve" smooth="yes"/>
      <point x="375" y="74"/>
      <point x="312" y="11"/>
      <point x="211" y="11" type="curve" smooth="yes"/>
      <point x="127" y="11"/>
      <point x="72" y="54"/>
      <point x="69" y="141" type="curve" smooth="yes"/>
      <point x="69" y="167" type="line" smooth="yes"/>
      <point x="69" y="176"/>
      <point x="64" y="183"/>
      <point x="58" y="183" type="curve" smooth="yes"/>
      <point x="52" y="183"/>
      <point x="47" y="178"/>
      <point x="46" y="167" type="curve" smooth="yes"/>
      <point x="26" y="10" type="line" smooth="yes"/>
      <point x="24" y="-1"/>
      <point x="29" y="-6"/>
      <point x="37" y="-6" type="curve" smooth="yes"/>
      <point x="48" y="-6"/>
      <point x="62" y="45"/>
      <point x="71" y="45" type="curve" smooth="yes"/>
      <point x="83" y="45"/>
      <point x="111" y="-10"/>
    </contour>
  </outline>
</glyph>
<glyph name="T" format="2">
  <advance width="501"/>
  <unicode hex="0054"/>
  <outline>
    <contour>
      <point x="229" y="710" type="curve" smooth="yes"/>
      <point x="145" y="710"/>
      <point x="103" y="670"/>
      <point x="103" y="609" type="curve" smooth="yes"/>
      <point x="103" y="583"/>
      <point x="116" y="569"/>
      <point x="135" y="569" type="curve" smooth="yes"/>
      <point x="151" y="569"/>
      <point x="161" y="582"/>
      <point x="161" y="593" type="curve" smooth="yes"/>
      <point x="161" y="611"/>
      <point x="138" y="623"/>
      <point x="138" y="637" type="curve" smooth="yes"/>
      <point x="138" y="669"/>
      <point x="161" y="689"/>
      <point x="231" y="689" type="curve" smooth="yes"/>
      <point x="304" y="689"/>
      <point x="478" y="646"/>
      <point x="537" y="646" type="curve" smooth="yes"/>
      <point x="595" y="646"/>
      <point x="626" y="669"/>
      <point x="626" y="701" type="curve" smooth="yes"/>
      <point x="626" y="722"/>
      <point x="617" y="731"/>
      <point x="605" y="731" type="curve" smooth="yes"/>
      <point x="590" y="731"/>
      <point x="578" y="723"/>
      <point x="573" y="701" type="curve" smooth="yes"/>
      <point x="567" y="680"/>
      <point x="555" y="670"/>
      <point x="526" y="670" type="curve" smooth="yes"/>
      <point x="479" y="670"/>
      <point x="299" y="710"/>
    </contour>
    <contour>
      <point x="223" y="51" type="curve" smooth="yes"/>
      <point x="246" y="147"/>
      <point x="357" y="559"/>
      <point x="392" y="682" type="curve"/>
      <point x="359" y="689" type="line"/>
      <point x="326" y="565"/>
      <point x="218" y="161"/>
      <point x="188" y="57" type="curve" smooth="yes"/>
      <point x="182" y="37"/>
      <point x="172" y="31"/>
      <point x="152" y="28" type="curve" smooth="yes"/>
      <point x="109" y="22" type="line" smooth="yes"/>
      <point x="97" y="20"/>
      <point x="90" y="17"/>
      <point x="89" y="10" type="curve" smooth="yes"/>
      <point x="88" y="5"/>
      <point x="93" y="0"/>
      <point x="102" y="0" type="curve" smooth="yes"/>
      <point x="282" y="0" type="line" smooth="yes"/>
      <point x="293" y="0"/>
      <point x="299" y="2"/>
      <point x="301" y="9" type="curve" smooth="yes"/>
      <point x="304" y="16"/>
      <point x="298" y="19"/>
      <point x="290" y="20" type="curve" smooth="yes"/>
      <point x="243" y="27" type="line" smooth="yes"/>
      <point x="226" y="29"/>
      <point x="219" y="36"/>
    </contour>
  </outline>
</glyph>
<glyph name="U" format="2">
  <advance width="656"/>
  <unicode hex="0055"/>
  <anchor x="457" y="738" name="center"/>
  <outline>
    <contour>
      <point x="495" y="194" type="line" smooth="yes"/>
      <point x="459" y="68"/>
      <point x="384" y="11"/>
      <point x="283" y="11" type="curve" smooth="yes"/>
      <point x="195" y="11"/>
      <point x="142" y="58"/>
      <point x="142" y="149" type="curve" smooth="yes"/>
      <point x="142" y="187"/>
      <point x="152" y="239"/>
      <point x="171" y="305" type="curve" smooth="yes"/>
      <point x="267" y="645" type="line" smooth="yes"/>
      <point x="272" y="662"/>
      <point x="282" y="668"/>
      <point x="298" y="671" type="curve" smooth="yes"/>
      <point x="341" y="679" type="line" smooth="yes"/>
      <point x="358" y="683"/>
      <point x="363" y="686"/>
      <point x="363" y="692" type="curve" smooth="yes"/>
      <point x="363" y="697"/>
      <point x="360" y="700"/>
      <point x="350" y="700" type="curve" smooth="yes"/>
      <point x="180" y="700" type="line" smooth="yes"/>
      <point x="166" y="700"/>
      <point x="159" y="696"/>
      <point x="159" y="691" type="curve" smooth="yes"/>
      <point x="159" y="684"/>
      <point x="163" y="680"/>
      <point x="177" y="677" type="curve" smooth="yes"/>
      <point x="214" y="671" type="line" smooth="yes"/>
      <point x="231" y="668"/>
      <point x="236" y="657"/>
      <point x="232" y="643" type="curve" smooth="yes"/>
      <point x="136" y="305" type="line" smooth="yes"/>
      <point x="120" y="249"/>
      <point x="105" y="184"/>
      <point x="105" y="147" type="curve" smooth="yes"/>
      <point x="105" y="55"/>
      <point x="156" y="-14"/>
      <point x="265" y="-14" type="curve" smooth="yes"/>
      <point x="399" y="-14"/>
      <point x="478" y="57"/>
      <point x="517" y="191" type="curve" smooth="yes"/>
      <point x="647" y="639" type="line" smooth="yes"/>
      <point x="653" y="660"/>
      <point x="664" y="665"/>
      <point x="683" y="669" type="curve" smooth="yes"/>
      <point x="726" y="678" type="line" smooth="yes"/>
      <point x="743" y="681"/>
      <point x="745" y="685"/>
      <point x="745" y="692" type="curve" smooth="yes"/>
      <point x="745" y="696"/>
      <point x="740" y="700"/>
      <point x="731" y="700" type="curve" smooth="yes"/>
      <point x="569" y="700" type="line" smooth="yes"/>
      <point x="558" y="700"/>
      <point x="552" y="696"/>
      <point x="552" y="689" type="curve" smooth="yes"/>
      <point x="552" y="683"/>
      <point x="558" y="680"/>
      <point x="571" y="677" type="curve" smooth="yes"/>
      <point x="605" y="669" type="line" smooth="yes"/>
      <point x="624" y="664"/>
      <point x="627" y="656"/>
      <point x="622" y="639" type="curve" smooth="yes"/>
    </contour>
  </outline>
</glyph>
<glyph name="V" format="2">
  <advance width="535"/>
  <unicode hex="0056"/>
  <outline>
    <contour>
      <point x="486" y="691" type="curve" smooth="yes"/>
      <point x="486" y="684"/>
      <point x="493" y="680"/>
      <point x="503" y="677" type="curve" smooth="yes"/>
      <point x="537" y="671" type="line" smooth="yes"/>
      <point x="560" y="666"/>
      <point x="569" y="643"/>
      <point x="552" y="618" type="curve" smooth="yes"/>
      <point x="198" y="57" type="line"/>
      <point x="210" y="60" type="line"/>
      <point x="209" y="179"/>
      <point x="205" y="531"/>
      <point x="206" y="632" type="curve" smooth="yes"/>
      <point x="206" y="653"/>
      <point x="212" y="668"/>
      <point x="232" y="671" type="curve" smooth="yes"/>
      <point x="284" y="679" type="line" smooth="yes"/>
      <point x="292" y="680"/>
      <point x="297" y="685"/>
      <point x="297" y="691" type="curve" smooth="yes"/>
      <point x="297" y="696"/>
      <point x="293" y="700"/>
      <point x="287" y="700" type="curve" smooth="yes"/>
      <point x="116" y="700" type="line" smooth="yes"/>
      <point x="110" y="700"/>
      <point x="104" y="696"/>
      <point x="104" y="691" type="curve" smooth="yes"/>
      <point x="104" y="685"/>
      <point x="107" y="680"/>
      <point x="117" y="679" type="curve" smooth="yes"/>
      <point x="147" y="673" type="line" smooth="yes"/>
      <point x="163" y="670"/>
      <point x="169" y="656"/>
      <point x="170" y="632" type="curve" smooth="yes"/>
      <point x="173" y="535"/>
      <point x="177" y="143"/>
      <point x="175" y="90" type="curve" smooth="yes"/>
      <point x="174" y="72"/>
      <point x="172" y="66"/>
      <point x="165" y="47" type="curve" smooth="yes"/>
      <point x="159" y="28" type="line" smooth="yes"/>
      <point x="154" y="13"/>
      <point x="160" y="0"/>
      <point x="172" y="0" type="curve" smooth="yes"/>
      <point x="190" y="0" type="line" smooth="yes"/>
      <point x="204" y="0"/>
      <point x="214" y="11"/>
      <point x="217" y="25" type="curve" smooth="yes"/>
      <point x="223" y="47" type="line" smooth="yes"/>
      <point x="227" y="62"/>
      <point x="235" y="77"/>
      <point x="244" y="90" type="curve" smooth="yes"/>
      <point x="580" y="622" type="line" smooth="yes"/>
      <point x="599" y="654"/>
      <point x="617" y="670"/>
      <point x="646" y="676" type="curve" smooth="yes"/>
      <point x="666" y="680" type="line" smooth="yes"/>
      <point x="677" y="681"/>
      <point x="681" y="687"/>
      <point x="681" y="693" type="curve" smooth="yes"/>
      <point x="681" y="698"/>
      <point x="677" y="700"/>
      <point x="667" y="700" type="curve" smooth="yes"/>
      <point x="501" y="700" type="line" smooth="yes"/>
      <point x="493" y="700"/>
      <point x="486" y="696"/>
    </contour>
  </outline>
</glyph>
<glyph name="Z" format="2">
  <advance width="557"/>
  <unicode hex="005A"/>
  <outline>
    <contour>
      <point x="401" y="0" type="line" smooth="yes"/>
      <point x="427" y="0"/>
      <point x="441" y="-16"/>
      <point x="459" y="-16" type="curve" smooth="yes"/>
      <point x="503" y="-16"/>
      <point x="541" y="52"/>
      <point x="541" y="129" type="curve" smooth="yes"/>
      <point x="541" y="128"/>
      <point x="535" y="128"/>
      <point x="527" y="128" type="curve" smooth="yes"/>
      <point x="520" y="128"/>
      <point x="519" y="120"/>
      <point x="514" y="109" type="curve" smooth="yes"/>
      <point x="507" y="93" type="line" smooth="yes"/>
      <point x="475" y="40"/>
      <point x="446" y="17"/>
      <point x="391" y="17" type="curve" smooth="yes"/>
      <point x="101" y="17" type="line"/>
      <point x="132" y="23" type="line"/>
      <point x="291" y="224"/>
      <point x="477" y="445"/>
      <point x="677" y="673" type="curve" smooth="yes"/>
      <point x="690" y="690"/>
      <point x="692" y="688"/>
      <point x="692" y="694" type="curve" smooth="yes"/>
      <point x="692" y="695"/>
      <point x="689" y="697"/>
      <point x="680" y="697" type="curve" smooth="yes"/>
      <point x="365" y="697" type="line" smooth="yes"/>
      <point x="335" y="697"/>
      <point x="322" y="719"/>
      <point x="302" y="719" type="curve" smooth="yes"/>
      <point x="301" y="719"/>
      <point x="300" y="713"/>
      <point x="290" y="705" type="curve" smooth="yes"/>
      <point x="222" y="599" type="line" smooth="yes"/>
      <point x="215" y="591"/>
      <point x="213" y="584"/>
      <point x="213" y="579" type="curve" smooth="yes"/>
      <point x="213" y="574"/>
      <point x="212" y="573"/>
      <point x="212" y="573" type="curve" smooth="yes"/>
      <point x="221" y="573"/>
      <point x="234" y="575"/>
      <point x="243" y="585" type="curve" smooth="yes"/>
      <point x="283" y="626" type="line" smooth="yes"/>
      <point x="309" y="654"/>
      <point x="319" y="679"/>
      <point x="351" y="679" type="curve" smooth="yes"/>
      <point x="616" y="679" type="line"/>
      <point x="594" y="673" type="line"/>
      <point x="441" y="473"/>
      <point x="255" y="257"/>
      <point x="27" y="7" type="curve" smooth="yes"/>
      <point x="18" y="-5"/>
      <point x="31" y="8"/>
      <point x="31" y="7" type="curve" smooth="yes"/>
      <point x="31" y="3"/>
      <point x="35" y="0"/>
      <point x="45" y="0" type="curve" smooth="yes"/>
    </contour>
  </outline>
</glyph>
<glyph name="a" format="2">
  <advance width="446"/>
  <unicode hex="0061"/>
  <anchor x="350" y="501" name="center"/>
  <outline>
    <contour>
      <point x="307" y="62" type="curve" smooth="yes"/>
      <point x="307" y="99"/>
      <point x="349" y="247"/>
      <point x="384" y="383" type="curve" smooth="yes"/>
      <point x="388" y="396"/>
      <point x="401" y="411"/>
      <point x="401" y="418" type="curve" smooth="yes"/>
      <point x="401" y="438"/>
      <point x="381" y="451"/>
      <point x="345" y="451" type="curve" smooth="yes"/>
      <point x="194" y="451"/>
      <point x="30" y="268"/>
      <point x="30" y="72" type="curve" smooth="yes"/>
      <point x="30" y="16"/>
      <point x="60" y="-9"/>
      <point x="99" y="-9" type="curve" smooth="yes"/>
      <point x="174" y="-9"/>
      <point x="268" y="85"/>
      <point x="319" y="221" type="curve"/>
      <point x="311" y="219" type="line"/>
      <point x="294" y="139"/>
      <point x="268" y="75"/>
      <point x="268" y="26" type="curve" smooth="yes"/>
      <point x="268" y="4"/>
      <point x="282" y="-9"/>
      <point x="307" y="-9" type="curve" smooth="yes"/>
      <point x="358" y="-9"/>
      <point x="399" y="30"/>
      <point x="405" y="64" type="curve" smooth="yes"/>
      <point x="406" y="69"/>
      <point x="403" y="72"/>
      <point x="399" y="72" type="curve" smooth="yes"/>
      <point x="394" y="72"/>
      <point x="389" y="69"/>
      <point x="384" y="61" type="curve" smooth="yes"/>
      <point x="366" y="39"/>
      <point x="349" y="28"/>
      <point x="335" y="28" type="curve" smooth="yes"/>
      <point x="316" y="28"/>
      <point x="307" y="41"/>
    </contour>
    <contour>
      <point x="65" y="102" type="curve" smooth="yes"/>
      <point x="65" y="261"/>
      <point x="209" y="427"/>
      <point x="318" y="427" type="curve" smooth="yes"/>
      <point x="343" y="427"/>
      <point x="355" y="417"/>
      <point x="355" y="390" type="curve" smooth="yes"/>
      <point x="355" y="265"/>
      <point x="210" y="22"/>
      <point x="121" y="22" type="curve" smooth="yes"/>
      <point x="91" y="22"/>
      <point x="65" y="34"/>
    </contour>
  </outline>
</glyph>
<glyph name="b" format="2">
  <advance width="447"/>
  <unicode hex="0062"/>
  <outline>
    <contour>
      <point x="201" y="507" type="line" smooth="yes"/>
      <point x="232" y="619"/>
      <point x="298" y="677"/>
      <point x="365" y="677" type="curve" smooth="yes"/>
      <point x="400" y="677"/>
      <point x="430" y="661"/>
      <point x="452" y="661" type="curve" smooth="yes"/>
      <point x="472" y="661"/>
      <point x="483" y="669"/>
      <point x="483" y="681" type="curve" smooth="yes"/>
      <point x="483" y="696"/>
      <point x="468" y="708"/>
      <point x="441" y="708" type="curve" smooth="yes"/>
      <point x="297" y="708"/>
      <point x="205" y="633"/>
      <point x="166" y="495" type="curve" smooth="yes"/>
      <point x="35" y="26" type="line" smooth="yes"/>
      <point x="31" y="13"/>
      <point x="30" y="8"/>
      <point x="30" y="2" type="curve" smooth="yes"/>
      <point x="30" y="-4"/>
      <point x="35" y="-9"/>
      <point x="40" y="-9" type="curve" smooth="yes"/>
      <point x="44" y="-9"/>
      <point x="50" y="-4"/>
      <point x="53" y="2" type="curve" smooth="yes"/>
      <point x="86" y="87" type="line"/>
      <point x="75" y="96" type="line"/>
      <point x="75" y="24"/>
      <point x="97" y="-10"/>
      <point x="156" y="-10" type="curve" smooth="yes"/>
      <point x="262" y="-10"/>
      <point x="420" y="156"/>
      <point x="420" y="364" type="curve" smooth="yes"/>
      <point x="420" y="418"/>
      <point x="395" y="450"/>
      <point x="345" y="450" type="curve" smooth="yes"/>
      <point x="258" y="450"/>
      <point x="150" y="325"/>
      <point x="103" y="197" type="curve"/>
      <point x="114" y="197" type="line"/>
    </contour>
    <contour>
      <point x="330" y="425" type="curve" smooth="yes"/>
      <point x="364" y="425"/>
      <point x="386" y="398"/>
      <point x="386" y="348" type="curve" smooth="yes"/>
      <point x="386" y="157"/>
      <point x="247" y="11"/>
      <point x="160" y="11" type="curve" smooth="yes"/>
      <point x="118" y="11"/>
      <point x="94" y="34"/>
      <point x="94" y="87" type="curve" smooth="yes"/>
      <point x="94" y="224"/>
      <point x="237" y="425"/>
    </contour>
  </outline>
</glyph>
<glyph name="c" format="2">
  <advance width="359"/>
  <unicode hex="0063"/>
  <anchor x="325" y="535" name="center"/>
  <outline>
    <contour>
      <point x="309" y="444" type="curve" smooth="yes"/>
      <point x="338" y="444"/>
      <point x="354" y="433"/>
      <point x="354" y="423" type="curve" smooth="yes"/>
      <point x="354" y="403"/>
      <point x="343" y="379"/>
      <point x="343" y="362" type="curve" smooth="yes"/>
      <point x="343" y="347"/>
      <point x="356" y="337"/>
      <point x="376" y="337" type="curve" smooth="yes"/>
      <point x="390" y="337"/>
      <point x="401" y="357"/>
      <point x="401" y="390" type="curve" smooth="yes"/>
      <point x="401" y="429"/>
      <point x="373" y="471"/>
      <point x="317" y="471" type="curve" smooth="yes"/>
      <point x="190" y="471"/>
      <point x="75" y="281"/>
      <point x="75" y="130" type="curve" smooth="yes"/>
      <point x="75" y="42"/>
      <point x="112" y="-15"/>
      <point x="185" y="-15" type="curve" smooth="yes"/>
      <point x="266" y="-15"/>
      <point x="353" y="65"/>
      <point x="353" y="106" type="curve" smooth="yes"/>
      <point x="353" y="110"/>
      <point x="346" y="113"/>
      <point x="347" y="113" type="curve" smooth="yes"/>
      <point x="337" y="113"/>
      <point x="331" y="103"/>
      <point x="323" y="92" type="curve" smooth="yes"/>
      <point x="303" y="57"/>
      <point x="266" y="29"/>
      <point x="212" y="29" type="curve" smooth="yes"/>
      <point x="156" y="29"/>
      <point x="115" y="75"/>
      <point x="115" y="159" type="curve" smooth="yes"/>
      <point x="115" y="309"/>
      <point x="210" y="444"/>
    </contour>
  </outline>
</glyph>
<glyph name="d" format="2">
  <advance width="445"/>
  <unicode hex="0064"/>
  <outline>
    <contour>
      <point x="470" y="419" type="line"/>
      <point x="468" y="451"/>
      <point x="450" y="471"/>
      <point x="399" y="471" type="curve" smooth="yes"/>
      <point x="255" y="471"/>
      <point x="74" y="295"/>
      <point x="74" y="86" type="curve" smooth="yes"/>
      <point x="74" y="11"/>
      <point x="95" y="-15"/>
      <point x="144" y="-15" type="curve" smooth="yes"/>
      <point x="213" y="-15"/>
      <point x="302" y="60"/>
      <point x="377" y="213" type="curve"/>
      <point x="367" y="215" type="line"/>
      <point x="367" y="160"/>
      <point x="333" y="89"/>
      <point x="333" y="26" type="curve" smooth="yes"/>
      <point x="333" y="2"/>
      <point x="345" y="-15"/>
      <point x="375" y="-15" type="curve" smooth="yes"/>
      <point x="412" y="-15"/>
      <point x="468" y="31"/>
      <point x="468" y="64" type="curve" smooth="yes"/>
      <point x="468" y="64"/>
      <point x="466" y="69"/>
      <point x="459" y="69" type="curve" smooth="yes"/>
      <point x="449" y="69"/>
      <point x="445" y="60"/>
      <point x="438" y="50" type="curve" smooth="yes"/>
      <point x="430" y="38"/>
      <point x="416" y="24"/>
      <point x="401" y="24" type="curve" smooth="yes"/>
      <point x="386" y="24"/>
      <point x="375" y="36"/>
      <point x="375" y="47" type="curve" smooth="yes"/>
      <point x="375" y="70"/>
      <point x="376" y="82"/>
      <point x="379" y="91" type="curve" smooth="yes"/>
      <point x="523" y="582" type="line" smooth="yes"/>
      <point x="532" y="612"/>
      <point x="527" y="643"/>
      <point x="526" y="654" type="curve" smooth="yes"/>
      <point x="526" y="673"/>
      <point x="537" y="687"/>
      <point x="556" y="687" type="curve" smooth="yes"/>
      <point x="572" y="687"/>
      <point x="596" y="651"/>
      <point x="624" y="651" type="curve" smooth="yes"/>
      <point x="642" y="651"/>
      <point x="660" y="665"/>
      <point x="660" y="681" type="curve" smooth="yes"/>
      <point x="660" y="702"/>
      <point x="639" y="708"/>
      <point x="600" y="708" type="curve" smooth="yes"/>
      <point x="538" y="708"/>
      <point x="515" y="672"/>
      <point x="490" y="597" type="curve" smooth="yes"/>
      <point x="412" y="366" type="line" smooth="yes"/>
      <point x="351" y="182"/>
      <point x="252" y="28"/>
      <point x="189" y="28" type="curve" smooth="yes"/>
      <point x="138" y="28"/>
      <point x="126" y="66"/>
      <point x="126" y="158" type="curve" smooth="yes"/>
      <point x="126" y="291"/>
      <point x="255" y="433"/>
      <point x="363" y="433" type="curve" smooth="yes"/>
      <point x="416" y="433"/>
      <point x="422" y="410"/>
      <point x="423" y="394" type="curve"/>
    </contour>
  </outline>
</glyph>
<glyph name="e" format="2">
  <advance width="380"/>
  <unicode hex="0065"/>
  <anchor x="279" y="509" name="center"/>
  <outline>
    <contour>
      <point x="57" y="199" type="curve"/>
      <point x="61" y="184" type="line"/>
      <point x="61" y="184"/>
      <point x="275" y="287"/>
      <point x="352" y="326" type="curve" smooth="yes"/>
      <point x="359" y="329"/>
      <point x="364" y="333"/>
      <point x="364" y="340" type="curve" smooth="yes"/>
      <point x="364" y="348"/>
      <point x="358" y="351"/>
      <point x="350" y="349" type="curve" smooth="yes"/>
      <point x="343" y="346"/>
      <point x="338" y="349"/>
      <point x="338" y="355" type="curve" smooth="yes"/>
      <point x="338" y="407"/>
      <point x="311" y="450"/>
      <point x="261" y="450" type="curve" smooth="yes"/>
      <point x="153" y="450"/>
      <point x="37" y="288"/>
      <point x="37" y="120" type="curve" smooth="yes"/>
      <point x="37" y="41"/>
      <point x="77" y="-9"/>
      <point x="145" y="-9" type="curve" smooth="yes"/>
      <point x="244" y="-9"/>
      <point x="315" y="61"/>
      <point x="325" y="134" type="curve" smooth="yes"/>
      <point x="325" y="143"/>
      <point x="323" y="147"/>
      <point x="318" y="147" type="curve" smooth="yes"/>
      <point x="314" y="147"/>
      <point x="312" y="144"/>
      <point x="309" y="137" type="curve" smooth="yes"/>
      <point x="277" y="56"/>
      <point x="223" y="17"/>
      <point x="165" y="17" type="curve" smooth="yes"/>
      <point x="109" y="17"/>
      <point x="72" y="60"/>
      <point x="72" y="150" type="curve" smooth="yes"/>
      <point x="72" y="288"/>
      <point x="172" y="429"/>
      <point x="246" y="429" type="curve" smooth="yes"/>
      <point x="281" y="429"/>
      <point x="304" y="396"/>
      <point x="304" y="349" type="curve" smooth="yes"/>
      <point x="304" y="332"/>
      <point x="303" y="324"/>
      <point x="300" y="314" type="curve"/>
      <point x="306" y="323" type="line"/>
      <point x="228" y="280"/>
      <point x="57" y="199"/>
    </contour>
  </outline>
</glyph>
<glyph name="f" format="2">
  <advance width="252"/>
  <unicode hex="0066"/>
  <outline>
    <contour>
      <point x="162" y="412" type="line"/>
      <point x="277" y="412" type="line" smooth="yes"/>
      <point x="291" y="412"/>
      <point x="302" y="417"/>
      <point x="302" y="426" type="curve" smooth="yes"/>
      <point x="302" y="430"/>
      <point x="298" y="433"/>
      <point x="293" y="433" type="curve" smooth="yes"/>
      <point x="168" y="433" type="line"/>
    </contour>
    <contour>
      <point x="66" y="423" type="curve" smooth="yes"/>
      <point x="66" y="419"/>
      <point x="69" y="414"/>
      <point x="78" y="414" type="curve" smooth="yes"/>
      <point x="134" y="413"/>
      <point x="145" y="397"/>
      <point x="136" y="366" type="curve" smooth="yes"/>
      <point x="13" y="-90" type="line" smooth="yes"/>
      <point x="2" y="-134"/>
      <point x="-1" y="-144"/>
      <point x="-1" y="-159" type="curve" smooth="yes"/>
      <point x="-1" y="-173"/>
      <point x="7" y="-181"/>
      <point x="19" y="-181" type="curve" smooth="yes"/>
      <point x="37" y="-181"/>
      <point x="52" y="-169"/>
      <point x="52" y="-155" type="curve" smooth="yes"/>
      <point x="52" y="-142"/>
      <point x="44" y="-134"/>
      <point x="44" y="-117" type="curve" smooth="yes"/>
      <point x="44" y="-103"/>
      <point x="46" y="-89"/>
      <point x="51" y="-72" type="curve" smooth="yes"/>
      <point x="186" y="431" type="line" smooth="yes"/>
      <point x="199" y="479"/>
      <point x="210" y="523"/>
      <point x="210" y="553" type="curve" smooth="yes"/>
      <point x="210" y="628"/>
      <point x="254" y="678"/>
      <point x="298" y="678" type="curve" smooth="yes"/>
      <point x="324" y="678"/>
      <point x="340" y="660"/>
      <point x="363" y="660" type="curve" smooth="yes"/>
      <point x="379" y="660"/>
      <point x="387" y="668"/>
      <point x="387" y="678" type="curve" smooth="yes"/>
      <point x="387" y="693"/>
      <point x="373" y="706"/>
      <point x="345" y="706" type="curve" smooth="yes"/>
      <point x="259" y="706"/>
      <point x="209" y="658"/>
      <point x="182" y="550" type="curve" smooth="yes"/>
      <point x="151" y="433" type="line"/>
      <point x="79" y="433" type="line" smooth="yes"/>
      <point x="71" y="433"/>
      <point x="66" y="429"/>
    </contour>
  </outline>
</glyph>
<glyph name="g" format="2">
  <advance width="430"/>
  <unicode hex="0067"/>
  <outline>
    <contour>
      <point x="314" y="-6" type="curve" smooth="yes"/>
      <point x="341" y="114"/>
      <point x="384" y="305"/>
      <point x="392" y="381" type="curve" smooth="yes"/>
      <point x="394" y="398"/>
      <point x="408" y="407"/>
      <point x="408" y="417" type="curve" smooth="yes"/>
      <point x="408" y="439"/>
      <point x="386" y="451"/>
      <point x="346" y="451" type="curve" smooth="yes"/>
      <point x="199" y="451"/>
      <point x="36" y="257"/>
      <point x="36" y="75" type="curve" smooth="yes"/>
      <point x="36" y="20"/>
      <point x="61" y="-9"/>
      <point x="103" y="-9" type="curve" smooth="yes"/>
      <point x="188" y="-9"/>
      <point x="307" y="98"/>
      <point x="361" y="290" type="curve"/>
      <point x="347" y="284" type="line"/>
      <point x="345" y="237"/>
      <point x="316" y="132"/>
      <point x="275" y="-28" type="curve" smooth="yes"/>
      <point x="241" y="-166"/>
      <point x="158" y="-212"/>
      <point x="92" y="-212" type="curve" smooth="yes"/>
      <point x="51" y="-212"/>
      <point x="15" y="-198"/>
      <point x="-9" y="-198" type="curve" smooth="yes"/>
      <point x="-27" y="-198"/>
      <point x="-39" y="-204"/>
      <point x="-39" y="-218" type="curve" smooth="yes"/>
      <point x="-39" y="-236"/>
      <point x="-22" y="-249"/>
      <point x="19" y="-249" type="curve" smooth="yes"/>
      <point x="142" y="-249"/>
      <point x="272" y="-184"/>
    </contour>
    <contour>
      <point x="70" y="94" type="curve" smooth="yes"/>
      <point x="70" y="267"/>
      <point x="220" y="429"/>
      <point x="324" y="429" type="curve" smooth="yes"/>
      <point x="348" y="429"/>
      <point x="362" y="410"/>
      <point x="362" y="384" type="curve" smooth="yes"/>
      <point x="362" y="257"/>
      <point x="235" y="22"/>
      <point x="127" y="22" type="curve" smooth="yes"/>
      <point x="92" y="22"/>
      <point x="70" y="43"/>
    </contour>
  </outline>
</glyph>
<glyph name="h" format="2">
  <advance width="468"/>
  <unicode hex="0068"/>
  <outline>
    <contour>
      <point x="107" y="161" type="curve" smooth="yes"/>
      <point x="87" y="104"/>
      <point x="77" y="75"/>
      <point x="77" y="53" type="curve" smooth="yes"/>
      <point x="77" y="35"/>
      <point x="83" y="29"/>
      <point x="83" y="17" type="curve" smooth="yes"/>
      <point x="83" y="1"/>
      <point x="65" y="-10"/>
      <point x="48" y="-10" type="curve" smooth="yes"/>
      <point x="37" y="-10"/>
      <point x="30" y="-6"/>
      <point x="30" y="6" type="curve" smooth="yes"/>
      <point x="30" y="16"/>
      <point x="34" y="27"/>
      <point x="43" y="62" type="curve" smooth="yes"/>
      <point x="163" y="474" type="line" smooth="yes"/>
      <point x="213" y="647"/>
      <point x="308" y="710"/>
      <point x="456" y="710" type="curve" smooth="yes"/>
      <point x="487" y="710"/>
      <point x="499" y="697"/>
      <point x="499" y="685" type="curve" smooth="yes"/>
      <point x="499" y="670"/>
      <point x="489" y="663"/>
      <point x="468" y="663" type="curve" smooth="yes"/>
      <point x="446" y="663"/>
      <point x="416" y="679"/>
      <point x="379" y="679" type="curve" smooth="yes"/>
      <point x="305" y="679"/>
      <point x="237" y="624"/>
      <point x="203" y="502" type="curve" smooth="yes"/>
      <point x="173" y="396"/>
      <point x="133" y="275"/>
      <point x="119" y="215" type="curve"/>
      <point x="110" y="216" type="line"/>
      <point x="183" y="373"/>
      <point x="276" y="451"/>
      <point x="360" y="451" type="curve" smooth="yes"/>
      <point x="390" y="451"/>
      <point x="406" y="434"/>
      <point x="406" y="406" type="curve" smooth="yes"/>
      <point x="406" y="377"/>
      <point x="401" y="356"/>
      <point x="387" y="314" type="curve" smooth="yes"/>
      <point x="316" y="107" type="line" smooth="yes"/>
      <point x="311" y="90"/>
      <point x="307" y="71"/>
      <point x="307" y="58" type="curve" smooth="yes"/>
      <point x="307" y="37"/>
      <point x="318" y="27"/>
      <point x="333" y="27" type="curve" smooth="yes"/>
      <point x="351" y="27"/>
      <point x="365" y="35"/>
      <point x="385" y="56" type="curve" smooth="yes"/>
      <point x="392" y="65"/>
      <point x="397" y="70"/>
      <point x="403" y="70" type="curve" smooth="yes"/>
      <point x="407" y="70"/>
      <point x="410" y="67"/>
      <point x="410" y="64" type="curve" smooth="yes"/>
      <point x="403" y="30"/>
      <point x="360" y="-10"/>
      <point x="306" y="-10" type="curve" smooth="yes"/>
      <point x="281" y="-10"/>
      <point x="267" y="6"/>
      <point x="267" y="33" type="curve" smooth="yes"/>
      <point x="267" y="48"/>
      <point x="271" y="63"/>
      <point x="281" y="92" type="curve" smooth="yes"/>
      <point x="361" y="323" type="line" smooth="yes"/>
      <point x="369" y="342"/>
      <point x="372" y="360"/>
      <point x="372" y="379" type="curve" smooth="yes"/>
      <point x="372" y="406"/>
      <point x="361" y="424"/>
      <point x="332" y="424" type="curve" smooth="yes"/>
      <point x="279" y="424"/>
      <point x="173" y="345"/>
    </contour>
  </outline>
</glyph>
<glyph name="k" format="2">
  <advance width="487"/>
  <unicode hex="006B"/>
  <outline>
    <contour>
      <point x="166" y="201" type="line"/>
      <point x="239" y="368"/>
      <point x="358" y="471"/>
      <point x="470" y="471" type="curve" smooth="yes"/>
      <point x="514" y="471"/>
      <point x="538" y="450"/>
      <point x="538" y="412" type="curve" smooth="yes"/>
      <point x="538" y="321"/>
      <point x="450" y="253"/>
      <point x="170" y="155" type="curve"/>
      <point x="168" y="166" type="line"/>
      <point x="431" y="266"/>
      <point x="498" y="341"/>
      <point x="498" y="396" type="curve" smooth="yes"/>
      <point x="498" y="423"/>
      <point x="477" y="438"/>
      <point x="444" y="438" type="curve" smooth="yes"/>
      <point x="347" y="438"/>
      <point x="219" y="315"/>
      <point x="180" y="184" type="curve" smooth="yes"/>
      <point x="172" y="158"/>
      <point x="170" y="140"/>
      <point x="170" y="127" type="curve" smooth="yes"/>
      <point x="170" y="88"/>
      <point x="191" y="72"/>
      <point x="191" y="48" type="curve" smooth="yes"/>
      <point x="191" y="10"/>
      <point x="165" y="-16"/>
      <point x="136" y="-16" type="curve" smooth="yes"/>
      <point x="118" y="-16"/>
      <point x="105" y="0"/>
      <point x="105" y="26" type="curve" smooth="yes"/>
      <point x="105" y="45"/>
      <point x="111" y="67"/>
      <point x="118" y="95" type="curve" smooth="yes"/>
      <point x="224" y="469" type="line" smooth="yes"/>
      <point x="263" y="603"/>
      <point x="385" y="709"/>
      <point x="547" y="709" type="curve" smooth="yes"/>
      <point x="604" y="709"/>
      <point x="632" y="693"/>
      <point x="632" y="676" type="curve" smooth="yes"/>
      <point x="632" y="651"/>
      <point x="613" y="628"/>
      <point x="579" y="628" type="curve" smooth="yes"/>
      <point x="541" y="628"/>
      <point x="474" y="649"/>
      <point x="430" y="649" type="curve" smooth="yes"/>
      <point x="358" y="649"/>
      <point x="299" y="587"/>
      <point x="281" y="532" type="curve" smooth="yes"/>
      <point x="234" y="379"/>
      <point x="210" y="337"/>
      <point x="210" y="287" type="curve"/>
    </contour>
    <contour>
      <point x="294" y="228" type="curve"/>
      <point x="327" y="252" type="line"/>
      <point x="374" y="80"/>
      <point x="403" y="51"/>
      <point x="451" y="51" type="curve" smooth="yes"/>
      <point x="472" y="51"/>
      <point x="474" y="76"/>
      <point x="487" y="76" type="curve" smooth="yes"/>
      <point x="488" y="76"/>
      <point x="487" y="73"/>
      <point x="487" y="68" type="curve" smooth="yes"/>
      <point x="487" y="22"/>
      <point x="445" y="-15"/>
      <point x="415" y="-15" type="curve" smooth="yes"/>
      <point x="362" y="-15"/>
      <point x="332" y="35"/>
    </contour>
  </outline>
</glyph>
<glyph name="l" format="2">
  <advance width="272"/>
  <unicode hex="006C"/>
  <outline>
    <contour>
      <point x="387" y="708" type="curve" smooth="yes"/>
      <point x="327" y="708"/>
      <point x="250" y="643"/>
      <point x="190" y="446" type="curve" smooth="yes"/>
      <point x="119" y="205" type="line" smooth="yes"/>
      <point x="97" y="132"/>
      <point x="78" y="90"/>
      <point x="78" y="30" type="curve" smooth="yes"/>
      <point x="78" y="3"/>
      <point x="92" y="-15"/>
      <point x="122" y="-15" type="curve" smooth="yes"/>
      <point x="195" y="-15"/>
      <point x="246" y="41"/>
      <point x="246" y="84" type="curve" smooth="yes"/>
      <point x="246" y="84"/>
      <point x="245" y="85"/>
      <point x="241" y="85" type="curve" smooth="yes"/>
      <point x="233" y="85"/>
      <point x="228" y="79"/>
      <point x="219" y="68" type="curve" smooth="yes"/>
      <point x="210" y="54"/>
      <point x="188" y="29"/>
      <point x="152" y="29" type="curve" smooth="yes"/>
      <point x="134" y="29"/>
      <point x="119" y="41"/>
      <point x="119" y="65" type="curve" smooth="yes"/>
      <point x="119" y="108"/>
      <point x="126" y="132"/>
      <point x="134" y="160" type="curve" smooth="yes"/>
      <point x="274" y="613" type="line" smooth="yes"/>
      <point x="275" y="615"/>
      <point x="307" y="633"/>
      <point x="307" y="630" type="curve" smooth="yes"/>
      <point x="307" y="651"/>
      <point x="321" y="667"/>
      <point x="335" y="667" type="curve" smooth="yes"/>
      <point x="357" y="667"/>
      <point x="372" y="634"/>
      <point x="413" y="634" type="curve" smooth="yes"/>
      <point x="437" y="634"/>
      <point x="447" y="651"/>
      <point x="447" y="671" type="curve" smooth="yes"/>
      <point x="447" y="690"/>
      <point x="428" y="708"/>
    </contour>
  </outline>
</glyph>
<glyph name="m" format="2">
  <advance width="719"/>
  <unicode hex="006D"/>
  <outline>
    <contour>
      <point x="293" y="63" type="line" smooth="yes"/>
      <point x="288" y="48"/>
      <point x="280" y="26"/>
      <point x="280" y="7" type="curve" smooth="yes"/>
      <point x="280" y="-2"/>
      <point x="287" y="-9"/>
      <point x="296" y="-9" type="curve" smooth="yes"/>
      <point x="316" y="-9"/>
      <point x="333" y="4"/>
      <point x="333" y="20" type="curve" smooth="yes"/>
      <point x="333" y="33"/>
      <point x="326" y="43"/>
      <point x="326" y="55" type="curve" smooth="yes"/>
      <point x="326" y="69"/>
      <point x="333" y="87"/>
      <point x="347" y="135" type="curve" smooth="yes"/>
      <point x="409" y="328"/>
      <point x="515" y="422"/>
      <point x="585" y="422" type="curve" smooth="yes"/>
      <point x="611" y="422"/>
      <point x="622" y="403"/>
      <point x="622" y="377" type="curve" smooth="yes"/>
      <point x="622" y="363"/>
      <point x="619" y="342"/>
      <point x="613" y="324" type="curve" smooth="yes"/>
      <point x="535" y="103" type="line" smooth="yes"/>
      <point x="525" y="74"/>
      <point x="518" y="56"/>
      <point x="518" y="34" type="curve" smooth="yes"/>
      <point x="518" y="7"/>
      <point x="534" y="-9"/>
      <point x="560" y="-9" type="curve" smooth="yes"/>
      <point x="611" y="-9"/>
      <point x="655" y="31"/>
      <point x="662" y="64" type="curve" smooth="yes"/>
      <point x="662" y="70"/>
      <point x="659" y="72"/>
      <point x="655" y="72" type="curve" smooth="yes"/>
      <point x="651" y="72"/>
      <point x="647" y="70"/>
      <point x="641" y="63" type="curve" smooth="yes"/>
      <point x="618" y="36"/>
      <point x="602" y="29"/>
      <point x="585" y="29" type="curve" smooth="yes"/>
      <point x="570" y="29"/>
      <point x="558" y="38"/>
      <point x="558" y="62" type="curve" smooth="yes"/>
      <point x="558" y="79"/>
      <point x="562" y="92"/>
      <point x="567" y="108" type="curve" smooth="yes"/>
      <point x="638" y="314" type="line" smooth="yes"/>
      <point x="651" y="349"/>
      <point x="658" y="374"/>
      <point x="658" y="406" type="curve" smooth="yes"/>
      <point x="658" y="432"/>
      <point x="641" y="451"/>
      <point x="611" y="451" type="curve" smooth="yes"/>
      <point x="523" y="451"/>
      <point x="403" y="344"/>
      <point x="348" y="177" type="curve"/>
      <point x="361" y="176" type="line"/>
      <point x="382" y="259"/>
      <point x="432" y="356"/>
      <point x="432" y="411" type="curve" smooth="yes"/>
      <point x="432" y="434"/>
      <point x="414" y="451"/>
      <point x="382" y="451" type="curve" smooth="yes"/>
      <point x="298" y="451"/>
      <point x="188" y="367"/>
      <point x="120" y="177" type="curve"/>
      <point x="130" y="175" type="line"/>
      <point x="150" y="278"/>
      <point x="205" y="348"/>
      <point x="205" y="413" type="curve" smooth="yes"/>
      <point x="205" y="437"/>
      <point x="190" y="451"/>
      <point x="168" y="451" type="curve" smooth="yes"/>
      <point x="115" y="451"/>
      <point x="65" y="409"/>
      <point x="57" y="378" type="curve" smooth="yes"/>
      <point x="56" y="372"/>
      <point x="59" y="368"/>
      <point x="63" y="368" type="curve" smooth="yes"/>
      <point x="69" y="368"/>
      <point x="74" y="371"/>
      <point x="78" y="378" type="curve" smooth="yes"/>
      <point x="98" y="406"/>
      <point x="116" y="420"/>
      <point x="139" y="420" type="curve" smooth="yes"/>
      <point x="160" y="420"/>
      <point x="169" y="408"/>
      <point x="169" y="387" type="curve" smooth="yes"/>
      <point x="169" y="372"/>
      <point x="164" y="350"/>
      <point x="158" y="331" type="curve" smooth="yes"/>
      <point x="66" y="69" type="line" smooth="yes"/>
      <point x="58" y="47"/>
      <point x="51" y="25"/>
      <point x="50" y="9" type="curve" smooth="yes"/>
      <point x="50" y="-3"/>
      <point x="56" y="-9"/>
      <point x="67" y="-9" type="curve" smooth="yes"/>
      <point x="87" y="-9"/>
      <point x="104" y="3"/>
      <point x="104" y="21" type="curve" smooth="yes"/>
      <point x="104" y="32"/>
      <point x="97" y="43"/>
      <point x="97" y="52" type="curve" smooth="yes"/>
      <point x="97" y="69"/>
      <point x="103" y="89"/>
      <point x="124" y="150" type="curve" smooth="yes"/>
      <point x="183" y="318"/>
      <point x="278" y="421"/>
      <point x="354" y="421" type="curve" smooth="yes"/>
      <point x="382" y="421"/>
      <point x="393" y="401"/>
      <point x="393" y="374" type="curve" smooth="yes"/>
      <point x="393" y="361"/>
      <point x="391" y="343"/>
      <point x="386" y="328" type="curve" smooth="yes"/>
    </contour>
  </outline>
</glyph>
<glyph name="n" format="2">
  <advance width="489"/>
  <unicode hex="006E"/>
  <outline>
    <contour>
      <point x="63" y="368" type="curve" smooth="yes"/>
      <point x="69" y="366"/>
      <point x="76" y="370"/>
      <point x="80" y="378" type="curve" smooth="yes"/>
      <point x="103" y="409"/>
      <point x="123" y="420"/>
      <point x="140" y="420" type="curve" smooth="yes"/>
      <point x="160" y="420"/>
      <point x="171" y="409"/>
      <point x="171" y="387" type="curve" smooth="yes"/>
      <point x="171" y="368"/>
      <point x="165" y="347"/>
      <point x="157" y="324" type="curve" smooth="yes"/>
      <point x="63" y="55" type="line" smooth="yes"/>
      <point x="56" y="35"/>
      <point x="52" y="21"/>
      <point x="52" y="9" type="curve" smooth="yes"/>
      <point x="52" y="-2"/>
      <point x="58" y="-9"/>
      <point x="69" y="-9" type="curve" smooth="yes"/>
      <point x="88" y="-9"/>
      <point x="106" y="3"/>
      <point x="106" y="18" type="curve" smooth="yes"/>
      <point x="106" y="32"/>
      <point x="99" y="44"/>
      <point x="99" y="53" type="curve" smooth="yes"/>
      <point x="99" y="64"/>
      <point x="102" y="76"/>
      <point x="123" y="143" type="curve" smooth="yes"/>
      <point x="181" y="323"/>
      <point x="292" y="422"/>
      <point x="354" y="422" type="curve" smooth="yes"/>
      <point x="383" y="422"/>
      <point x="395" y="404"/>
      <point x="395" y="376" type="curve" smooth="yes"/>
      <point x="395" y="362"/>
      <point x="391" y="340"/>
      <point x="383" y="316" type="curve" smooth="yes"/>
      <point x="314" y="121" type="line" smooth="yes"/>
      <point x="303" y="90"/>
      <point x="291" y="62"/>
      <point x="291" y="36" type="curve" smooth="yes"/>
      <point x="291" y="8"/>
      <point x="303" y="-9"/>
      <point x="331" y="-9" type="curve" smooth="yes"/>
      <point x="375" y="-9"/>
      <point x="414" y="18"/>
      <point x="433" y="56" type="curve" smooth="yes"/>
      <point x="435" y="63"/>
      <point x="435" y="70"/>
      <point x="431" y="72" type="curve" smooth="yes"/>
      <point x="424" y="73"/>
      <point x="420" y="70"/>
      <point x="414" y="63" type="curve" smooth="yes"/>
      <point x="390" y="36"/>
      <point x="373" y="29"/>
      <point x="359" y="29" type="curve" smooth="yes"/>
      <point x="340" y="29"/>
      <point x="330" y="40"/>
      <point x="330" y="63" type="curve" smooth="yes"/>
      <point x="330" y="75"/>
      <point x="333" y="91"/>
      <point x="342" y="114" type="curve" smooth="yes"/>
      <point x="410" y="312" type="line" smooth="yes"/>
      <point x="424" y="354"/>
      <point x="431" y="377"/>
      <point x="431" y="404" type="curve" smooth="yes"/>
      <point x="431" y="433"/>
      <point x="415" y="451"/>
      <point x="382" y="451" type="curve" smooth="yes"/>
      <point x="306" y="451"/>
      <point x="200" y="379"/>
      <point x="121" y="177" type="curve"/>
      <point x="133" y="175" type="line"/>
      <point x="164" y="282"/>
      <point x="207" y="365"/>
      <point x="207" y="410" type="curve" smooth="yes"/>
      <point x="207" y="438"/>
      <point x="193" y="451"/>
      <point x="171" y="451" type="curve" smooth="yes"/>
      <point x="123" y="451"/>
      <point x="85" y="424"/>
      <point x="61" y="387" type="curve" smooth="yes"/>
      <point x="56" y="379"/>
      <point x="58" y="370"/>
    </contour>
  </outline>
</glyph>
<glyph name="o" format="2">
  <advance width="424"/>
  <unicode hex="006F"/>
  <outline>
    <contour>
      <point x="276" y="450" type="curve" smooth="yes"/>
      <point x="168" y="450"/>
      <point x="38" y="311"/>
      <point x="38" y="136" type="curve" smooth="yes"/>
      <point x="38" y="42"/>
      <point x="91" y="-9"/>
      <point x="154" y="-9" type="curve" smooth="yes"/>
      <point x="258" y="-9"/>
      <point x="387" y="125"/>
      <point x="387" y="301" type="curve" smooth="yes"/>
      <point x="387" y="400"/>
      <point x="347" y="450"/>
    </contour>
    <contour>
      <point x="162" y="13" type="curve" smooth="yes"/>
      <point x="111" y="13"/>
      <point x="73" y="47"/>
      <point x="73" y="119" type="curve" smooth="yes"/>
      <point x="73" y="288"/>
      <point x="178" y="428"/>
      <point x="268" y="428" type="curve" smooth="yes"/>
      <point x="319" y="428"/>
      <point x="352" y="391"/>
      <point x="352" y="309" type="curve" smooth="yes"/>
      <point x="352" y="137"/>
      <point x="243" y="13"/>
    </contour>
  </outline>
</glyph>
<glyph name="p" format="2">
  <advance width="481"/>
  <unicode hex="0070"/>
  <outline>
    <contour>
      <point x="329" y="541" type="line" smooth="yes"/>
      <point x="327" y="530"/>
      <point x="329" y="539"/>
      <point x="329" y="548" type="curve" smooth="yes"/>
      <point x="329" y="569"/>
      <point x="316" y="584"/>
      <point x="299" y="584" type="curve" smooth="yes"/>
      <point x="306" y="584"/>
      <point x="307" y="581"/>
      <point x="311" y="601" type="curve" smooth="yes"/>
      <point x="65" y="-152" type="line" smooth="yes"/>
      <point x="58" y="-170"/>
      <point x="46" y="-182"/>
      <point x="24" y="-195" type="curve" smooth="yes"/>
      <point x="5" y="-204"/>
      <point x="-3" y="-212"/>
      <point x="-3" y="-219" type="curve" smooth="yes"/>
      <point x="-3" y="-229"/>
      <point x="9" y="-237"/>
      <point x="25" y="-235" type="curve" smooth="yes"/>
      <point x="144" y="-230" type="line" smooth="yes"/>
      <point x="161" y="-229"/>
      <point x="173" y="-223"/>
      <point x="173" y="-215" type="curve" smooth="yes"/>
      <point x="173" y="-207"/>
      <point x="162" y="-203"/>
      <point x="142" y="-195" type="curve" smooth="yes"/>
      <point x="120" y="-184"/>
      <point x="112" y="-175"/>
      <point x="112" y="-158" type="curve" smooth="yes"/>
      <point x="112" y="-142"/>
      <point x="117" y="-122"/>
      <point x="123" y="-103" type="curve" smooth="yes"/>
    </contour>
    <contour>
      <point x="127" y="322" type="curve" smooth="yes"/>
      <point x="126" y="322"/>
      <point x="126" y="326"/>
      <point x="126" y="327" type="curve" smooth="yes"/>
      <point x="191" y="395"/>
      <point x="294" y="453"/>
      <point x="359" y="453" type="curve" smooth="yes"/>
      <point x="434" y="453"/>
      <point x="450" y="419"/>
      <point x="450" y="346" type="curve" smooth="yes"/>
      <point x="450" y="139"/>
      <point x="307" y="-2"/>
      <point x="231" y="-2" type="curve" smooth="yes"/>
      <point x="183" y="-2"/>
      <point x="155" y="25"/>
      <point x="154" y="24" type="curve"/>
      <point x="163" y="26" type="line"/>
      <point x="184" y="-11"/>
      <point x="200" y="-14"/>
      <point x="244" y="-14" type="curve" smooth="yes"/>
      <point x="331" y="-14"/>
      <point x="498" y="110"/>
      <point x="498" y="340" type="curve" smooth="yes"/>
      <point x="498" y="428"/>
      <point x="461" y="471"/>
      <point x="359" y="471" type="curve" smooth="yes"/>
      <point x="266" y="471"/>
      <point x="180" y="416"/>
      <point x="125" y="348" type="curve" smooth="yes"/>
      <point x="121" y="344"/>
      <point x="113" y="337"/>
      <point x="113" y="328" type="curve" smooth="yes"/>
      <point x="113" y="324"/>
      <point x="119" y="322"/>
    </contour>
  </outline>
</glyph>
<glyph name="q" format="2">
  <advance width="474"/>
  <unicode hex="0071"/>
  <outline>
    <contour>
      <point x="138" y="102" type="curve" smooth="yes"/>
      <point x="138" y="285"/>
      <point x="250" y="430"/>
      <point x="366" y="430" type="curve" smooth="yes"/>
      <point x="404" y="430"/>
      <point x="426" y="408"/>
      <point x="426" y="353" type="curve" smooth="yes"/>
      <point x="426" y="270"/>
      <point x="308" y="32"/>
      <point x="193" y="32" type="curve" smooth="yes"/>
      <point x="159" y="32"/>
      <point x="138" y="53"/>
    </contour>
    <contour>
      <point x="427" y="305" type="line"/>
      <point x="314" y="-131" type="line" smooth="yes"/>
      <point x="307" y="-157"/>
      <point x="293" y="-177"/>
      <point x="264" y="-188" type="curve" smooth="yes"/>
      <point x="235" y="-200"/>
      <point x="222" y="-206"/>
      <point x="222" y="-213" type="curve" smooth="yes"/>
      <point x="222" y="-225"/>
      <point x="234" y="-231"/>
      <point x="246" y="-230" type="curve" smooth="yes"/>
      <point x="375" y="-225" type="line" smooth="yes"/>
      <point x="394" y="-223"/>
      <point x="407" y="-214"/>
      <point x="407" y="-205" type="curve" smooth="yes"/>
      <point x="407" y="-201"/>
      <point x="406" y="-197"/>
      <point x="395" y="-193" type="curve" smooth="yes"/>
      <point x="368" y="-179"/>
      <point x="362" y="-175"/>
      <point x="362" y="-152" type="curve" smooth="yes"/>
      <point x="362" y="-136"/>
      <point x="365" y="-119"/>
      <point x="372" y="-92" type="curve" smooth="yes"/>
      <point x="468" y="327" type="line" smooth="yes"/>
      <point x="478" y="374"/>
      <point x="491" y="401"/>
      <point x="491" y="436" type="curve" smooth="yes"/>
      <point x="491" y="458"/>
      <point x="461" y="472"/>
      <point x="405" y="472" type="curve" smooth="yes"/>
      <point x="262" y="472"/>
      <point x="91" y="252"/>
      <point x="91" y="73" type="curve" smooth="yes"/>
      <point x="91" y="16"/>
      <point x="120" y="-15"/>
      <point x="166" y="-15" type="curve" smooth="yes"/>
      <point x="250" y="-15"/>
      <point x="386" y="83"/>
      <point x="464" y="379" type="curve"/>
    </contour>
  </outline>
</glyph>
<glyph name="r" format="2">
  <advance width="343"/>
  <unicode hex="0072"/>
  <outline>
    <contour>
      <point x="64" y="368" type="curve" smooth="yes"/>
      <point x="71" y="368"/>
      <point x="77" y="374"/>
      <point x="84" y="385" type="curve" smooth="yes"/>
      <point x="99" y="405"/>
      <point x="116" y="420"/>
      <point x="141" y="420" type="curve" smooth="yes"/>
      <point x="158" y="420"/>
      <point x="170" y="407"/>
      <point x="170" y="389" type="curve" smooth="yes"/>
      <point x="170" y="370"/>
      <point x="167" y="355"/>
      <point x="159" y="334" type="curve" smooth="yes"/>
      <point x="74" y="90" type="line" smooth="yes"/>
      <point x="64" y="61"/>
      <point x="59" y="38"/>
      <point x="59" y="25" type="curve" smooth="yes"/>
      <point x="59" y="7"/>
      <point x="67" y="-8"/>
      <point x="83" y="-8" type="curve" smooth="yes"/>
      <point x="101" y="-8"/>
      <point x="117" y="3"/>
      <point x="117" y="16" type="curve" smooth="yes"/>
      <point x="117" y="27"/>
      <point x="99" y="42"/>
      <point x="99" y="60" type="curve" smooth="yes"/>
      <point x="99" y="73"/>
      <point x="105" y="90"/>
      <point x="115" y="121" type="curve" smooth="yes"/>
      <point x="193" y="341"/>
      <point x="271" y="425"/>
      <point x="316" y="425" type="curve" smooth="yes"/>
      <point x="350" y="425"/>
      <point x="333" y="367"/>
      <point x="361" y="367" type="curve" smooth="yes"/>
      <point x="379" y="367"/>
      <point x="387" y="381"/>
      <point x="387" y="398" type="curve" smooth="yes"/>
      <point x="387" y="426"/>
      <point x="368" y="451"/>
      <point x="341" y="451" type="curve" smooth="yes"/>
      <point x="270" y="451"/>
      <point x="203" y="386"/>
      <point x="109" y="146" type="curve"/>
      <point x="116" y="140" type="line"/>
      <point x="127" y="213"/>
      <point x="205" y="345"/>
      <point x="205" y="411" type="curve" smooth="yes"/>
      <point x="205" y="434"/>
      <point x="191" y="451"/>
      <point x="169" y="451" type="curve" smooth="yes"/>
      <point x="118" y="451"/>
      <point x="67" y="413"/>
      <point x="57" y="378" type="curve" smooth="yes"/>
      <point x="57" y="371"/>
      <point x="59" y="368"/>
    </contour>
  </outline>
</glyph>
<glyph name="s" format="2">
  <advance width="344"/>
  <unicode hex="0073"/>
  <outline>
    <contour>
      <point x="153" y="10" type="curve" smooth="yes"/>
      <point x="119" y="10"/>
      <point x="87" y="27"/>
      <point x="63" y="67" type="curve" smooth="yes"/>
      <point x="51" y="86"/>
      <point x="44" y="90"/>
      <point x="34" y="90" type="curve" smooth="yes"/>
      <point x="26" y="90"/>
      <point x="20" y="82"/>
      <point x="20" y="71" type="curve" smooth="yes"/>
      <point x="20" y="26"/>
      <point x="72" y="-9"/>
      <point x="130" y="-9" type="curve" smooth="yes"/>
      <point x="212" y="-9"/>
      <point x="265" y="34"/>
      <point x="265" y="99" type="curve" smooth="yes"/>
      <point x="265" y="136"/>
      <point x="250" y="164"/>
      <point x="185" y="227" type="curve" smooth="yes"/>
      <point x="140" y="270"/>
      <point x="119" y="299"/>
      <point x="119" y="342" type="curve" smooth="yes"/>
      <point x="119" y="393"/>
      <point x="162" y="432"/>
      <point x="222" y="432" type="curve" smooth="yes"/>
      <point x="257" y="432"/>
      <point x="278" y="411"/>
      <point x="294" y="385" type="curve" smooth="yes"/>
      <point x="303" y="368"/>
      <point x="313" y="362"/>
      <point x="322" y="362" type="curve" smooth="yes"/>
      <point x="333" y="362"/>
      <point x="340" y="368"/>
      <point x="340" y="382" type="curve" smooth="yes"/>
      <point x="340" y="414"/>
      <point x="306" y="450"/>
      <point x="238" y="450" type="curve" smooth="yes"/>
      <point x="148" y="450"/>
      <point x="88" y="389"/>
      <point x="88" y="326" type="curve" smooth="yes"/>
      <point x="88" y="285"/>
      <point x="102" y="253"/>
      <point x="159" y="198" type="curve" smooth="yes"/>
      <point x="219" y="138"/>
      <point x="233" y="115"/>
      <point x="233" y="84" type="curve" smooth="yes"/>
      <point x="233" y="37"/>
      <point x="198" y="10"/>
    </contour>
  </outline>
</glyph>
<glyph name="t" format="2">
  <advance width="270"/>
  <unicode hex="0074"/>
  <outline>
    <contour>
      <point x="143" y="410" type="line" smooth="yes"/>
      <point x="150" y="408"/>
      <point x="153" y="403"/>
      <point x="153" y="395" type="curve" smooth="yes"/>
      <point x="153" y="387"/>
      <point x="150" y="379"/>
      <point x="146" y="368" type="curve" smooth="yes"/>
      <point x="66" y="121" type="line" smooth="yes"/>
      <point x="54" y="83"/>
      <point x="51" y="69"/>
      <point x="51" y="51" type="curve" smooth="yes"/>
      <point x="51" y="13"/>
      <point x="67" y="-8"/>
      <point x="103" y="-8" type="curve" smooth="yes"/>
      <point x="150" y="-8"/>
      <point x="206" y="31"/>
      <point x="211" y="67" type="curve" smooth="yes"/>
      <point x="211" y="72"/>
      <point x="209" y="75"/>
      <point x="204" y="75" type="curve" smooth="yes"/>
      <point x="199" y="75"/>
      <point x="198" y="74"/>
      <point x="192" y="67" type="curve" smooth="yes"/>
      <point x="173" y="38"/>
      <point x="153" y="27"/>
      <point x="127" y="27" type="curve" smooth="yes"/>
      <point x="102" y="27"/>
      <point x="89" y="42"/>
      <point x="89" y="74" type="curve" smooth="yes"/>
      <point x="89" y="92"/>
      <point x="93" y="109"/>
      <point x="101" y="136" type="curve" smooth="yes"/>
      <point x="218" y="489" type="line" smooth="yes"/>
      <point x="221" y="499"/>
      <point x="223" y="506"/>
      <point x="223" y="511" type="curve" smooth="yes"/>
      <point x="223" y="518"/>
      <point x="221" y="522"/>
      <point x="216" y="522" type="curve" smooth="yes"/>
      <point x="211" y="522"/>
      <point x="207" y="519"/>
      <point x="202" y="512" type="curve" smooth="yes"/>
      <point x="160" y="450" type="line" smooth="yes"/>
      <point x="157" y="443"/>
      <point x="152" y="441"/>
      <point x="144" y="441" type="curve" smooth="yes"/>
      <point x="101" y="441" type="line" smooth="yes"/>
      <point x="95" y="441"/>
      <point x="88" y="436"/>
      <point x="88" y="431" type="curve" smooth="yes"/>
      <point x="88" y="425"/>
      <point x="93" y="421"/>
      <point x="100" y="420" type="curve" smooth="yes"/>
    </contour>
    <contour>
      <point x="162" y="417" type="line"/>
      <point x="273" y="417" type="line" smooth="yes"/>
      <point x="288" y="417"/>
      <point x="298" y="422"/>
      <point x="298" y="432" type="curve" smooth="yes"/>
      <point x="298" y="437"/>
      <point x="293" y="441"/>
      <point x="286" y="441" type="curve" smooth="yes"/>
      <point x="169" y="441" type="line"/>
    </contour>
  </outline>
</glyph>
<glyph name="v" format="2">
  <advance width="429"/>
  <unicode hex="0076"/>
  <outline>
    <contour>
      <point x="408" y="380" type="curve" smooth="yes"/>
      <point x="408" y="430"/>
      <point x="391" y="449"/>
      <point x="369" y="449" type="curve" smooth="yes"/>
      <point x="354" y="449"/>
      <point x="342" y="438"/>
      <point x="342" y="425" type="curve" smooth="yes"/>
      <point x="342" y="412"/>
      <point x="349" y="400"/>
      <point x="363" y="389" type="curve" smooth="yes"/>
      <point x="377" y="377"/>
      <point x="383" y="364"/>
      <point x="383" y="333" type="curve" smooth="yes"/>
      <point x="383" y="174"/>
      <point x="269" y="23"/>
      <point x="177" y="23" type="curve" smooth="yes"/>
      <point x="143" y="23"/>
      <point x="126" y="49"/>
      <point x="126" y="101" type="curve" smooth="yes"/>
      <point x="126" y="190"/>
      <point x="156" y="281"/>
      <point x="259" y="427" type="curve" smooth="yes"/>
      <point x="264" y="434"/>
      <point x="268" y="441"/>
      <point x="267" y="445" type="curve" smooth="yes"/>
      <point x="267" y="450"/>
      <point x="265" y="452"/>
      <point x="260" y="452" type="curve" smooth="yes"/>
      <point x="246" y="449"/>
      <point x="237" y="436"/>
      <point x="219" y="436" type="curve" smooth="yes"/>
      <point x="196" y="436"/>
      <point x="144" y="443"/>
      <point x="122" y="443" type="curve" smooth="yes"/>
      <point x="65" y="443"/>
      <point x="28" y="397"/>
      <point x="28" y="347" type="curve" smooth="yes"/>
      <point x="28" y="320"/>
      <point x="42" y="306"/>
      <point x="60" y="306" type="curve" smooth="yes"/>
      <point x="75" y="306"/>
      <point x="86" y="315"/>
      <point x="86" y="327" type="curve" smooth="yes"/>
      <point x="86" y="337"/>
      <point x="82" y="344"/>
      <point x="72" y="351" type="curve" smooth="yes"/>
      <point x="59" y="359"/>
      <point x="55" y="368"/>
      <point x="55" y="381" type="curve" smooth="yes"/>
      <point x="55" y="400"/>
      <point x="71" y="416"/>
      <point x="102" y="416" type="curve" smooth="yes"/>
      <point x="138" y="416"/>
      <point x="204" y="401"/>
      <point x="232" y="401" type="curve"/>
      <point x="245" y="429" type="line"/>
      <point x="231" y="415"/>
      <point x="215" y="393"/>
      <point x="195" y="360" type="curve" smooth="yes"/>
      <point x="118" y="237"/>
      <point x="90" y="153"/>
      <point x="90" y="83" type="curve" smooth="yes"/>
      <point x="90" y="23"/>
      <point x="113" y="-9"/>
      <point x="156" y="-9" type="curve" smooth="yes"/>
      <point x="273" y="-9"/>
      <point x="408" y="166"/>
    </contour>
  </outline>
</glyph>
<glyph name="w" format="2">
  <advance width="668"/>
  <unicode hex="0077"/>
  <outline>
    <contour>
      <point x="485" y="471" type="curve" smooth="yes"/>
      <point x="467" y="471"/>
      <point x="449" y="445"/>
      <point x="434" y="395" type="curve" smooth="yes"/>
      <point x="413" y="334"/>
      <point x="397" y="234"/>
      <point x="397" y="114" type="curve" smooth="yes"/>
      <point x="397" y="33"/>
      <point x="425" y="-15"/>
      <point x="476" y="-15" type="curve" smooth="yes"/>
      <point x="596" y="-15"/>
      <point x="694" y="166"/>
      <point x="694" y="396" type="curve" smooth="yes"/>
      <point x="694" y="452"/>
      <point x="673" y="472"/>
      <point x="643" y="472" type="curve" smooth="yes"/>
      <point x="625" y="472"/>
      <point x="608" y="457"/>
      <point x="608" y="440" type="curve" smooth="yes"/>
      <point x="608" y="416"/>
      <point x="617" y="405"/>
      <point x="640" y="377" type="curve" smooth="yes"/>
      <point x="654" y="359"/>
      <point x="668" y="331"/>
      <point x="668" y="309" type="curve" smooth="yes"/>
      <point x="668" y="173"/>
      <point x="571" y="50"/>
      <point x="510" y="50" type="curve" smooth="yes"/>
      <point x="458" y="50"/>
      <point x="426" y="88"/>
      <point x="425" y="158" type="curve"/>
      <point x="392" y="85"/>
      <point x="330" y="51"/>
      <point x="280" y="51" type="curve" smooth="yes"/>
      <point x="237" y="51"/>
      <point x="214" y="74"/>
      <point x="214" y="122" type="curve"/>
      <point x="214" y="197"/>
      <point x="239" y="265"/>
      <point x="330" y="432" type="curve" smooth="yes"/>
      <point x="344" y="462"/>
      <point x="363" y="459"/>
      <point x="363" y="468" type="curve" smooth="yes"/>
      <point x="363" y="470"/>
      <point x="364" y="471"/>
      <point x="364" y="471" type="curve" smooth="yes"/>
      <point x="350" y="471"/>
      <point x="342" y="453"/>
      <point x="325" y="453" type="curve" smooth="yes"/>
      <point x="296" y="453"/>
      <point x="240" y="456"/>
      <point x="216" y="456" type="curve" smooth="yes"/>
      <point x="159" y="456"/>
      <point x="123" y="404"/>
      <point x="123" y="352" type="curve" smooth="yes"/>
      <point x="123" y="331"/>
      <point x="132" y="320"/>
      <point x="146" y="320" type="curve" smooth="yes"/>
      <point x="155" y="320"/>
      <point x="171" y="329"/>
      <point x="171" y="348" type="curve" smooth="yes"/>
      <point x="171" y="353"/>
      <point x="171" y="362"/>
      <point x="157" y="370" type="curve" smooth="yes"/>
      <point x="146" y="377"/>
      <point x="144" y="385"/>
      <point x="144" y="393" type="curve" smooth="yes"/>
      <point x="144" y="406"/>
      <point x="154" y="416"/>
      <point x="179" y="416" type="curve" smooth="yes"/>
      <point x="219" y="416"/>
      <point x="289" y="403"/>
      <point x="337" y="403" type="curve" smooth="yes"/>
      <point x="367" y="403"/>
      <point x="351" y="422"/>
      <point x="342" y="418" type="curve"/>
      <point x="342" y="432"/>
      <point x="341" y="440"/>
      <point x="291" y="363" type="curve" smooth="yes"/>
      <point x="209" y="227"/>
      <point x="178" y="139"/>
      <point x="178" y="93" type="curve"/>
      <point x="178" y="28"/>
      <point x="201" y="-15"/>
      <point x="239" y="-15" type="curve" smooth="yes"/>
      <point x="351" y="-15"/>
      <point x="446" y="114"/>
      <point x="483" y="283" type="curve" smooth="yes"/>
      <point x="493" y="334"/>
      <point x="499" y="385"/>
      <point x="499" y="440" type="curve" smooth="yes"/>
      <point x="499" y="462"/>
      <point x="493" y="471"/>
    </contour>
  </outline>
</glyph>
<glyph name="x" format="2">
  <advance width="481"/>
  <unicode hex="0078"/>
  <outline>
    <contour>
      <point x="147" y="26" type="curve" smooth="yes"/>
      <point x="130" y="26"/>
      <point x="120" y="36"/>
      <point x="120" y="48" type="curve" smooth="yes"/>
      <point x="120" y="66"/>
      <point x="120" y="84"/>
      <point x="120" y="98" type="curve" smooth="yes"/>
      <point x="120" y="113"/>
      <point x="107" y="123"/>
      <point x="89" y="123" type="curve" smooth="yes"/>
      <point x="71" y="123"/>
      <point x="57" y="101"/>
      <point x="57" y="61" type="curve" smooth="yes"/>
      <point x="57" y="23"/>
      <point x="84" y="-16"/>
      <point x="137" y="-16" type="curve" smooth="yes"/>
      <point x="174" y="-16"/>
      <point x="233" y="-20"/>
      <point x="314" y="172" type="curve"/>
      <point x="291" y="174" type="line"/>
      <point x="276" y="37"/>
      <point x="306" y="-15"/>
      <point x="340" y="-15" type="curve" smooth="yes"/>
      <point x="386" y="-15"/>
      <point x="448" y="46"/>
      <point x="448" y="96" type="curve" smooth="yes"/>
      <point x="448" y="105"/>
      <point x="440" y="113"/>
      <point x="439" y="113" type="curve" smooth="yes"/>
      <point x="432" y="113"/>
      <point x="423" y="104"/>
      <point x="423" y="97" type="curve" smooth="yes"/>
      <point x="412" y="59"/>
      <point x="394" y="29"/>
      <point x="366" y="29" type="curve" smooth="yes"/>
      <point x="340" y="29"/>
      <point x="318" y="63"/>
      <point x="318" y="191" type="curve" smooth="yes"/>
      <point x="318" y="327"/>
      <point x="380" y="444"/>
      <point x="446" y="444" type="curve" smooth="yes"/>
      <point x="464" y="444"/>
      <point x="475" y="435"/>
      <point x="475" y="422" type="curve" smooth="yes"/>
      <point x="475" y="401"/>
      <point x="470" y="380"/>
      <point x="470" y="363" type="curve" smooth="yes"/>
      <point x="470" y="343"/>
      <point x="485" y="332"/>
      <point x="507" y="332" type="curve" smooth="yes"/>
      <point x="524" y="332"/>
      <point x="538" y="355"/>
      <point x="538" y="394" type="curve" smooth="yes"/>
      <point x="538" y="428"/>
      <point x="510" y="471"/>
      <point x="454" y="471" type="curve" smooth="yes"/>
      <point x="392" y="471"/>
      <point x="347" y="445"/>
      <point x="311" y="316" type="curve"/>
      <point x="317" y="318" type="line"/>
      <point x="318" y="434"/>
      <point x="301" y="471"/>
      <point x="271" y="471" type="curve" smooth="yes"/>
      <point x="193" y="471"/>
      <point x="133" y="398"/>
      <point x="132" y="341" type="curve" smooth="yes"/>
      <point x="132" y="336"/>
      <point x="135" y="327"/>
      <point x="136" y="327" type="curve" smooth="yes"/>
      <point x="143" y="327"/>
      <point x="152" y="338"/>
      <point x="152" y="353" type="curve" smooth="yes"/>
      <point x="153" y="393"/>
      <point x="184" y="433"/>
      <point x="218" y="433" type="curve" smooth="yes"/>
      <point x="260" y="433"/>
      <point x="295" y="398"/>
      <point x="295" y="277" type="curve" smooth="yes"/>
      <point x="295" y="127"/>
      <point x="221" y="26"/>
    </contour>
  </outline>
</glyph>
<glyph name="y" format="2">
  <advance width="469"/>
  <unicode hex="0079"/>
  <outline>
    <contour>
      <point x="339" y="200" type="curve" smooth="yes"/>
      <point x="247" y="-68" type="line"/>
      <point x="275" y="-41" type="line"/>
      <point x="265" y="108"/>
      <point x="257" y="370"/>
      <point x="248" y="477" type="curve" smooth="yes"/>
      <point x="253" y="472"/>
      <point x="246" y="472"/>
      <point x="245" y="472" type="curve" smooth="yes"/>
      <point x="221" y="472"/>
      <point x="140" y="408"/>
      <point x="140" y="384" type="curve" smooth="yes"/>
      <point x="140" y="379"/>
      <point x="143" y="375"/>
      <point x="147" y="375" type="curve" smooth="yes"/>
      <point x="165" y="375"/>
      <point x="177" y="396"/>
      <point x="190" y="396" type="curve" smooth="yes"/>
      <point x="197" y="396"/>
      <point x="207" y="389"/>
      <point x="210" y="351" type="curve" smooth="yes"/>
      <point x="228" y="183"/>
      <point x="223" y="63"/>
      <point x="223" y="-31" type="curve" smooth="yes"/>
      <point x="223" y="-126"/>
      <point x="174" y="-179"/>
      <point x="111" y="-179" type="curve" smooth="yes"/>
      <point x="66" y="-179"/>
      <point x="16" y="-175"/>
      <point x="-7" y="-175" type="curve" smooth="yes"/>
      <point x="-25" y="-175"/>
      <point x="-36" y="-181"/>
      <point x="-36" y="-194" type="curve" smooth="yes"/>
      <point x="-36" y="-223"/>
      <point x="-8" y="-245"/>
      <point x="39" y="-245" type="curve" smooth="yes"/>
      <point x="134" y="-245"/>
      <point x="234" y="-173"/>
      <point x="286" y="-11" type="curve" smooth="yes"/>
      <point x="393" y="322"/>
      <point x="442" y="359"/>
      <point x="519" y="396" type="curve" smooth="yes"/>
      <point x="538" y="409"/>
      <point x="557" y="426"/>
      <point x="557" y="453" type="curve" smooth="yes"/>
      <point x="557" y="465"/>
      <point x="549" y="475"/>
      <point x="536" y="475" type="curve" smooth="yes"/>
      <point x="467" y="475"/>
      <point x="408" y="391"/>
    </contour>
  </outline>
</glyph>
<glyph name="z" format="2">
  <advance width="406"/>
  <unicode hex="007A"/>
  <outline>
    <contour>
      <point x="160" y="79" type="curve"/>
      <point x="128" y="80" type="line"/>
      <point x="160" y="80"/>
      <point x="253" y="47"/>
      <point x="300" y="47" type="curve" smooth="yes"/>
      <point x="327" y="47"/>
      <point x="343" y="60"/>
      <point x="352" y="90" type="curve" smooth="yes"/>
      <point x="356" y="109"/>
      <point x="365" y="117"/>
      <point x="372" y="117" type="curve" smooth="yes"/>
      <point x="378" y="117"/>
      <point x="380" y="111"/>
      <point x="380" y="99" type="curve" smooth="yes"/>
      <point x="380" y="31"/>
      <point x="332" y="-15"/>
      <point x="275" y="-15" type="curve" smooth="yes"/>
      <point x="237" y="-15"/>
      <point x="184" y="62"/>
      <point x="163" y="62" type="curve" smooth="yes"/>
      <point x="137" y="62"/>
      <point x="128" y="-15"/>
      <point x="71" y="-15" type="curve" smooth="yes"/>
      <point x="54" y="-15"/>
      <point x="43" y="-3"/>
      <point x="43" y="15" type="curve" smooth="yes"/>
      <point x="43" y="35"/>
      <point x="54" y="53"/>
      <point x="71" y="62" type="curve" smooth="yes"/>
      <point x="97" y="75"/>
      <point x="182" y="144"/>
      <point x="306" y="253" type="curve" smooth="yes"/>
      <point x="354" y="294"/>
      <point x="368" y="330"/>
      <point x="368" y="356" type="curve"/>
      <point x="382" y="362" type="line"/>
      <point x="341" y="362"/>
      <point x="236" y="400"/>
      <point x="189" y="400" type="curve" smooth="yes"/>
      <point x="168" y="400"/>
      <point x="160" y="391"/>
      <point x="160" y="380" type="curve" smooth="yes"/>
      <point x="160" y="372"/>
      <point x="164" y="365"/>
      <point x="176" y="360" type="curve" smooth="yes"/>
      <point x="190" y="353"/>
      <point x="197" y="344"/>
      <point x="197" y="334" type="curve" smooth="yes"/>
      <point x="197" y="315"/>
      <point x="184" y="304"/>
      <point x="169" y="304" type="curve" smooth="yes"/>
      <point x="159" y="304"/>
      <point x="153" y="313"/>
      <point x="153" y="329" type="curve" smooth="yes"/>
      <point x="153" y="402"/>
      <point x="202" y="471"/>
      <point x="276" y="471" type="curve" smooth="yes"/>
      <point x="322" y="471"/>
      <point x="344" y="373"/>
      <point x="367" y="373" type="curve" smooth="yes"/>
      <point x="376" y="373"/>
      <point x="382" y="376"/>
      <point x="384" y="413" type="curve" smooth="yes"/>
      <point x="385" y="447"/>
      <point x="405" y="471"/>
      <point x="432" y="471" type="curve" smooth="yes"/>
      <point x="444" y="471"/>
      <point x="461" y="444"/>
      <point x="461" y="426" type="curve" smooth="yes"/>
      <point x="461" y="371"/>
      <point x="438" y="351"/>
      <point x="414" y="329" type="curve" smooth="yes"/>
      <point x="388" y="304"/>
      <point x="324" y="246"/>
      <point x="278" y="206" type="curve" smooth="yes"/>
      <point x="182" y="126"/>
      <point x="159" y="94"/>
    </contour>
  </outline>
</glyph>
<glyph name="dotlessi" format="2">
  <advance width="270"/>
  <unicode hex="0131"/>
  <anchor x="232" y="495" name="center"/>
  <outline>
    <contour>
      <point x="100" y="64" type="curve" smooth="yes"/>
      <point x="100" y="40"/>
      <point x="110" y="32"/>
      <point x="129" y="32" type="curve" smooth="yes"/>
      <point x="146" y="32"/>
      <point x="168" y="42"/>
      <point x="185" y="63" type="curve" smooth="yes"/>
      <point x="193" y="72"/>
      <point x="196" y="74"/>
      <point x="201" y="74" type="curve" smooth="yes"/>
      <point x="205" y="74"/>
      <point x="207" y="70"/>
      <point x="206" y="65" type="curve" smooth="yes"/>
      <point x="200" y="33"/>
      <point x="148" y="-9"/>
      <point x="102" y="-9" type="curve" smooth="yes"/>
      <point x="78" y="-9"/>
      <point x="60" y="10"/>
      <point x="60" y="36" type="curve" smooth="yes"/>
      <point x="60" y="64"/>
      <point x="69" y="100"/>
      <point x="100" y="169" type="curve" smooth="yes"/>
      <point x="170" y="326" type="line" smooth="yes"/>
      <point x="181" y="347"/>
      <point x="185" y="364"/>
      <point x="185" y="386" type="curve" smooth="yes"/>
      <point x="185" y="407"/>
      <point x="172" y="419"/>
      <point x="155" y="419" type="curve" smooth="yes"/>
      <point x="135" y="419"/>
      <point x="122" y="411"/>
      <point x="106" y="394" type="curve" smooth="yes"/>
      <point x="99" y="386"/>
      <point x="92" y="375"/>
      <point x="85" y="376" type="curve" smooth="yes"/>
      <point x="81" y="376"/>
      <point x="78" y="378"/>
      <point x="78" y="385" type="curve" smooth="yes"/>
      <point x="87" y="412"/>
      <point x="134" y="453"/>
      <point x="186" y="453" type="curve" smooth="yes"/>
      <point x="206" y="453"/>
      <point x="219" y="435"/>
      <point x="219" y="411" type="curve" smooth="yes"/>
      <point x="219" y="385"/>
      <point x="214" y="361"/>
      <point x="197" y="325" type="curve" smooth="yes"/>
      <point x="125" y="164" type="line" smooth="yes"/>
      <point x="111" y="133"/>
      <point x="100" y="93"/>
    </contour>
  </outline>
</glyph>
<glyph name="b.alt" format="2">
  <advance width="447"/>
  <outline>
    <contour>
      <point x="330" y="426" type="curve" smooth="yes"/>
      <point x="364" y="426"/>
      <point x="384" y="399"/>
      <point x="384" y="349" type="curve" smooth="yes"/>
      <point x="384" y="158"/>
      <point x="247" y="12"/>
      <point x="160" y="12" type="curve" smooth="yes"/>
      <point x="118" y="12"/>
      <point x="93" y="35"/>
      <point x="93" y="88" type="curve" smooth="yes"/>
      <point x="93" y="225"/>
      <point x="237" y="426"/>
    </contour>
    <contour>
      <point x="185" y="580" type="curve" smooth="yes"/>
      <point x="35" y="28" type="line" smooth="yes"/>
      <point x="31" y="15"/>
      <point x="30" y="9"/>
      <point x="30" y="4" type="curve" smooth="yes"/>
      <point x="30" y="-2"/>
      <point x="35" y="-7"/>
      <point x="40" y="-7" type="curve" smooth="yes"/>
      <point x="44" y="-7"/>
      <point x="50" y="-3"/>
      <point x="53" y="4" type="curve" smooth="yes"/>
      <point x="84" y="88" type="line"/>
      <point x="75" y="97" type="line"/>
      <point x="75" y="25"/>
      <point x="95" y="-9"/>
      <point x="156" y="-9" type="curve" smooth="yes"/>
      <point x="262" y="-9"/>
      <point x="420" y="157"/>
      <point x="420" y="366" type="curve" smooth="yes"/>
      <point x="420" y="419"/>
      <point x="394" y="451"/>
      <point x="345" y="451" type="curve" smooth="yes"/>
      <point x="258" y="451"/>
      <point x="150" y="327"/>
      <point x="103" y="198" type="curve"/>
      <point x="111" y="198" type="line"/>
      <point x="211" y="579" type="line" smooth="yes"/>
      <point x="221" y="618"/>
      <point x="229" y="640"/>
      <point x="229" y="666" type="curve" smooth="yes"/>
      <point x="229" y="690"/>
      <point x="216" y="708"/>
      <point x="196" y="708" type="curve" smooth="yes"/>
      <point x="142" y="708"/>
      <point x="96" y="668"/>
      <point x="89" y="646" type="curve" smooth="yes"/>
      <point x="88" y="639"/>
      <point x="92" y="637"/>
      <point x="96" y="637" type="curve" smooth="yes"/>
      <point x="102" y="636"/>
      <point x="110" y="646"/>
      <point x="118" y="654" type="curve" smooth="yes"/>
      <point x="131" y="669"/>
      <point x="146" y="674"/>
      <point x="165" y="674" type="curve" smooth="yes"/>
      <point x="182" y="674"/>
      <point x="195" y="665"/>
      <point x="195" y="643" type="curve" smooth="yes"/>
      <point x="195" y="621"/>
      <point x="192" y="604"/>
    </contour>
  </outline>
</glyph>
<glyph name="h.alt" format="2">
  <advance width="468"/>
  <outline>
    <contour>
      <point x="227" y="579" type="curve" smooth="yes"/>
      <point x="171" y="398"/>
      <point x="133" y="274"/>
      <point x="120" y="216" type="curve"/>
      <point x="109" y="217" type="line"/>
      <point x="183" y="376"/>
      <point x="276" y="453"/>
      <point x="360" y="453" type="curve" smooth="yes"/>
      <point x="390" y="453"/>
      <point x="408" y="437"/>
      <point x="408" y="408" type="curve" smooth="yes"/>
      <point x="408" y="379"/>
      <point x="402" y="358"/>
      <point x="388" y="315" type="curve" smooth="yes"/>
      <point x="317" y="107" type="line" smooth="yes"/>
      <point x="311" y="90"/>
      <point x="307" y="71"/>
      <point x="307" y="58" type="curve" smooth="yes"/>
      <point x="307" y="37"/>
      <point x="319" y="26"/>
      <point x="334" y="26" type="curve" smooth="yes"/>
      <point x="352" y="26"/>
      <point x="366" y="35"/>
      <point x="386" y="56" type="curve" smooth="yes"/>
      <point x="393" y="65"/>
      <point x="398" y="70"/>
      <point x="404" y="70" type="curve" smooth="yes"/>
      <point x="409" y="70"/>
      <point x="412" y="67"/>
      <point x="411" y="64" type="curve" smooth="yes"/>
      <point x="404" y="29"/>
      <point x="361" y="-11"/>
      <point x="307" y="-11" type="curve" smooth="yes"/>
      <point x="281" y="-11"/>
      <point x="267" y="6"/>
      <point x="267" y="32" type="curve" smooth="yes"/>
      <point x="267" y="48"/>
      <point x="271" y="63"/>
      <point x="281" y="92" type="curve" smooth="yes"/>
      <point x="362" y="324" type="line" smooth="yes"/>
      <point x="369" y="344"/>
      <point x="372" y="363"/>
      <point x="372" y="381" type="curve" smooth="yes"/>
      <point x="372" y="408"/>
      <point x="362" y="426"/>
      <point x="333" y="426" type="curve" smooth="yes"/>
      <point x="279" y="426"/>
      <point x="173" y="347"/>
      <point x="107" y="162" type="curve" smooth="yes"/>
      <point x="86" y="104"/>
      <point x="75" y="75"/>
      <point x="75" y="53" type="curve" smooth="yes"/>
      <point x="75" y="35"/>
      <point x="81" y="28"/>
      <point x="81" y="17" type="curve" smooth="yes"/>
      <point x="81" y="0"/>
      <point x="64" y="-11"/>
      <point x="47" y="-11" type="curve" smooth="yes"/>
      <point x="36" y="-11"/>
      <point x="29" y="-6"/>
      <point x="29" y="6" type="curve" smooth="yes"/>
      <point x="29" y="15"/>
      <point x="31" y="26"/>
      <point x="42" y="62" type="curve" smooth="yes"/>
      <point x="200" y="580" type="line" smooth="yes"/>
      <point x="207" y="604"/>
      <point x="210" y="621"/>
      <point x="210" y="643" type="curve" smooth="yes"/>
      <point x="210" y="665"/>
      <point x="197" y="675"/>
      <point x="180" y="675" type="curve" smooth="yes"/>
      <point x="161" y="675"/>
      <point x="147" y="669"/>
      <point x="132" y="654" type="curve" smooth="yes"/>
      <point x="125" y="646"/>
      <point x="118" y="636"/>
      <point x="110" y="636" type="curve" smooth="yes"/>
      <point x="105" y="636"/>
      <point x="102" y="639"/>
      <point x="103" y="646" type="curve" smooth="yes"/>
      <point x="110" y="668"/>
      <point x="158" y="709"/>
      <point x="210" y="709" type="curve" smooth="yes"/>
      <point x="232" y="709"/>
      <point x="245" y="692"/>
      <point x="245" y="666" type="curve" smooth="yes"/>
      <point x="245" y="640"/>
      <point x="239" y="617"/>
    </contour>
  </outline>
</glyph>
<glyph name="jdotless" format="2">
  <advance width="281"/>
  <outline>
    <contour>
      <point x="266" y="337" type="curve" smooth="yes"/>
      <point x="178" y="-66" type="line" smooth="yes"/>
      <point x="154" y="-181"/>
      <point x="88" y="-238"/>
      <point x="20" y="-238" type="curve" smooth="yes"/>
      <point x="3" y="-238"/>
      <point x="-7" y="-221"/>
      <point x="-7" y="-205" type="curve" smooth="yes"/>
      <point x="-7" y="-175"/>
      <point x="11" y="-146"/>
      <point x="40" y="-146" type="curve" smooth="yes"/>
      <point x="61" y="-146"/>
      <point x="76" y="-189"/>
      <point x="94" y="-189" type="curve" smooth="yes"/>
      <point x="96" y="-189"/>
      <point x="99" y="-180"/>
      <point x="99" y="-163" type="curve" smooth="yes"/>
      <point x="99" y="-126"/>
      <point x="128" y="-76"/>
      <point x="127" y="-72" type="curve" smooth="yes"/>
      <point x="231" y="354" type="line" smooth="yes"/>
      <point x="234" y="375"/>
      <point x="240" y="388"/>
      <point x="238" y="403" type="curve" smooth="yes"/>
      <point x="238" y="412"/>
      <point x="232" y="416"/>
      <point x="218" y="416" type="curve" smooth="yes"/>
      <point x="198" y="416"/>
      <point x="187" y="404"/>
      <point x="171" y="386" type="curve" smooth="yes"/>
      <point x="158" y="371"/>
      <point x="151" y="360"/>
      <point x="142" y="360" type="curve" smooth="yes"/>
      <point x="134" y="360"/>
      <point x="126" y="363"/>
      <point x="126" y="371" type="curve" smooth="yes"/>
      <point x="125" y="395"/>
      <point x="214" y="471"/>
      <point x="260" y="471" type="curve" smooth="yes"/>
      <point x="285" y="471"/>
      <point x="298" y="458"/>
      <point x="299" y="441" type="curve" smooth="yes"/>
      <point x="303" y="413"/>
      <point x="272" y="372"/>
    </contour>
  </outline>
</glyph>
<glyph name="v.alt" format="2">
  <advance width="395"/>
  <outline>
    <contour>
      <point x="94" y="40" type="curve" smooth="yes"/>
      <point x="94" y="89"/>
      <point x="128" y="284"/>
      <point x="129" y="331" type="curve" smooth="yes"/>
      <point x="130" y="353"/>
      <point x="130" y="369"/>
      <point x="124" y="387" type="curve" smooth="yes"/>
      <point x="116" y="408"/>
      <point x="103" y="414"/>
      <point x="88" y="407" type="curve" smooth="yes"/>
      <point x="70" y="401"/>
      <point x="59" y="390"/>
      <point x="52" y="371" type="curve" smooth="yes"/>
      <point x="47" y="361"/>
      <point x="44" y="349"/>
      <point x="37" y="347" type="curve" smooth="yes"/>
      <point x="32" y="345"/>
      <point x="28" y="346"/>
      <point x="26" y="353" type="curve" smooth="yes"/>
      <point x="25" y="376"/>
      <point x="56" y="432"/>
      <point x="105" y="449" type="curve" smooth="yes"/>
      <point x="125" y="457"/>
      <point x="144" y="445"/>
      <point x="152" y="421" type="curve" smooth="yes"/>
      <point x="161" y="398"/>
      <point x="161" y="377"/>
      <point x="159" y="340" type="curve" smooth="yes"/>
      <point x="157" y="295"/>
      <point x="129" y="102"/>
      <point x="129" y="58" type="curve" smooth="yes"/>
      <point x="129" y="35"/>
      <point x="135" y="24"/>
      <point x="146" y="24" type="curve" smooth="yes"/>
      <point x="196" y="24"/>
      <point x="345" y="200"/>
      <point x="345" y="350" type="curve" smooth="yes"/>
      <point x="345" y="370"/>
      <point x="340" y="377"/>
      <point x="329" y="386" type="curve" smooth="yes"/>
      <point x="315" y="397"/>
      <point x="311" y="410"/>
      <point x="311" y="425" type="curve" smooth="yes"/>
      <point x="311" y="438"/>
      <point x="322" y="449"/>
      <point x="335" y="449" type="curve" smooth="yes"/>
      <point x="357" y="449"/>
      <point x="373" y="435"/>
      <point x="373" y="401" type="curve" smooth="yes"/>
      <point x="373" y="183"/>
      <point x="205" y="-9"/>
      <point x="126" y="-9" type="curve" smooth="yes"/>
      <point x="106" y="-9"/>
      <point x="94" y="8"/>
    </contour>
  </outline>
</glyph>
